<svg width="28" height="28" viewBox="0 0 28 28" fill="none" xmlns="http://www.w3.org/2000/svg">
<g clip-path="url(#clip0_193_1269)">
<path d="M17 4H10C6.68629 4 4 6.68629 4 10V17C4 20.3137 6.68629 23 10 23H17C20.3137 23 23 20.3137 23 17V10C23 6.68629 20.3137 4 17 4Z" fill="#C4C4C4" stroke="#C4C4C4" stroke-width="9" stroke-linejoin="round"/>
<path d="M17 4H10C6.68629 4 4 6.68629 4 10V17C4 20.3137 6.68629 23 10 23H17C20.3137 23 23 20.3137 23 17V10C23 6.68629 20.3137 4 17 4Z" fill="#F7F3F2"/>
<path d="M6.5 8.5C6.2 8.5 6 8.7 6 9V16.5V18.5C6 18.8 6.2 19 6.5 19C6.8 19 7 18.8 7 18.5V17H20V18.5C20 18.8 20.2 19 20.5 19C20.8 19 21 18.8 21 18.5V16.5C21 16.2 20.8 16 20.5 16H7V9C7 8.7 6.8 8.5 6.5 8.5ZM9.5 9C8.7 9 8 9.7 8 10.5C8 11.3 8.7 12 9.5 12C10.3 12 11 11.3 11 10.5C11 9.7 10.3 9 9.5 9ZM13 10C11.5 10 11.5 11.5 11.5 11.5V13H8.5C8.2 13 8 13.2 8 13.5V14.5C8 14.8 8.2 15 8.5 15H12H21V12.5C21 10 18.5 10 18.5 10H13Z" fill="#1F30ED"/>
</g>
<defs>
<clipPath id="clip0_193_1269">
<rect width="28" height="28" fill="white"/>
</clipPath>
</defs>
</svg>
