<svg width="28" height="28" viewBox="0 0 28 28" fill="none" xmlns="http://www.w3.org/2000/svg">
<g clip-path="url(#clip0_193_1275)">
<path d="M17 4H10C6.68629 4 4 6.68629 4 10V17C4 20.3137 6.68629 23 10 23H17C20.3137 23 23 20.3137 23 17V10C23 6.68629 20.3137 4 17 4Z" fill="#C4C4C4" stroke="#C4C4C4" stroke-width="9" stroke-linejoin="round"/>
<path d="M17 4H10C6.68629 4 4 6.68629 4 10V17C4 20.3137 6.68629 23 10 23H17C20.3137 23 23 20.3137 23 17V10C23 6.68629 20.3137 4 17 4Z" fill="#F7F3F2"/>
<path d="M19.9103 13.9403C19.8923 14.2566 19.8488 14.5709 19.7803 14.8803C19.1356 14.2779 18.4041 13.7756 17.6103 13.3903C17.1603 13.1643 16.692 12.977 16.2103 12.8303C15.618 12.6485 15.0078 12.5312 14.3903 12.4803C14.3645 12.4721 14.3374 12.4687 14.3103 12.4703C13.9536 11.8847 13.6809 11.2518 13.5003 10.5903C13.4903 10.5803 13.4903 10.5803 13.5003 10.5703C14.0107 10.5702 14.5198 10.6204 15.0203 10.7203C15.5579 10.8262 16.0814 10.994 16.5803 11.2203C17.0759 11.4247 17.5457 11.6865 17.9803 12.0003C18.7384 12.5216 19.3929 13.1795 19.9103 13.9403ZM18.0403 8.94029C17.5057 8.40835 16.8788 7.97803 16.1903 7.67029C15.8796 7.51068 15.5505 7.38977 15.2103 7.31029C14.7069 7.16189 14.1852 7.08447 13.6603 7.08029C13.5541 7.06699 13.4466 7.06699 13.3403 7.08029C13.2515 7.54836 13.208 8.02388 13.2103 8.50029C13.2103 8.70029 13.2203 8.89029 13.2303 9.08029C13.3167 9.07201 13.4035 9.06867 13.4903 9.07029C13.5838 9.06867 13.6772 9.07201 13.7703 9.08029C14.2708 9.08851 14.7695 9.14206 15.2603 9.24029C15.7192 9.32834 16.1706 9.45205 16.6103 9.61029C17.1415 9.79417 17.6539 10.0286 18.1403 10.3103C18.6298 10.5944 19.0948 10.9189 19.5303 11.2803C19.209 10.4016 18.7006 9.60316 18.0403 8.94029ZM10.0103 14.7603C9.76743 14.3209 9.5601 13.8628 9.39031 13.3903C9.22949 12.9309 9.10576 12.4594 9.02031 11.9803C8.91609 11.4297 8.86253 10.8707 8.86031 10.3103V10.2803C8.85805 9.83168 8.89148 9.38359 8.96031 8.94029C8.29291 9.60523 7.78367 10.4118 7.47031 11.3003C7.20523 12.0034 7.0697 12.7488 7.07031 13.5003C7.07031 13.6503 7.08031 13.8003 7.09031 13.9403C7.10838 14.2566 7.15185 14.5709 7.22031 14.8803C7.31004 15.3045 7.44759 15.7171 7.63031 16.1103C7.85031 16.0603 8.07031 16.0003 8.28031 15.9403C8.94939 15.7313 9.58817 15.4354 10.1803 15.0603C10.1203 14.9603 10.0603 14.8603 10.0103 14.7603ZM12.6103 12.4803C12.3398 11.9171 12.1287 11.3272 11.9803 10.7203C11.8599 10.2344 11.7796 9.73936 11.7403 9.24029C11.7203 8.99029 11.7103 8.75029 11.7103 8.50029C11.7117 8.10233 11.7384 7.70485 11.7903 7.31029C11.4502 7.38977 11.121 7.51068 10.8103 7.67029C10.5872 8.29614 10.4461 8.94821 10.3903 9.61029C10.3703 9.83029 10.3603 10.0503 10.3603 10.2803C10.3604 10.5913 10.3804 10.9019 10.4203 11.2103C10.4819 11.7658 10.606 12.3126 10.7903 12.8403C10.9398 13.2872 11.1376 13.7164 11.3803 14.1203C11.8681 13.6526 12.2948 13.1251 12.6503 12.5503C12.6333 12.5293 12.6198 12.5056 12.6103 12.4803ZM18.7003 15.9303C18.7003 15.9303 18.7003 15.9203 18.6903 15.9303C18.1838 15.4621 17.6109 15.0712 16.9903 14.7703C16.9303 14.8703 16.8803 14.9603 16.8203 15.0603C16.5624 15.4914 16.268 15.8995 15.9403 16.2803C15.6178 16.6662 15.2632 17.0242 14.8803 17.3503C14.4477 17.7138 13.9861 18.0416 13.5003 18.3303C12.6797 18.8075 11.7886 19.1518 10.8603 19.3503C11.688 19.7324 12.5887 19.9303 13.5003 19.9303C14.4119 19.9303 15.3127 19.7324 16.1403 19.3503C17.098 18.9422 17.9323 18.2906 18.5603 17.4603C18.8196 17.1458 19.038 16.7997 19.2103 16.4303C19.0503 16.2537 18.88 16.0867 18.7003 15.9303ZM13.5303 13.9303C13.5203 13.9403 13.5103 13.9603 13.5003 13.9703C13.1321 14.4781 12.7133 14.9472 12.2503 15.3703C11.878 15.7042 11.4801 16.0084 11.0603 16.2803C10.2536 16.8074 9.36968 17.2055 8.44031 17.4603C8.6033 17.6751 8.78036 17.8789 8.97031 18.0703C10.0593 18.0547 11.1327 17.8094 12.1203 17.3503C12.6087 17.1279 13.0715 16.853 13.5003 16.5303C13.9589 16.1915 14.3782 15.8024 14.7503 15.3703C15.0581 15.0127 15.3326 14.6278 15.5703 14.2203C14.9073 14.0282 14.2206 13.9306 13.5303 13.9303Z" fill="#1F30ED"/>
</g>
<defs>
<clipPath id="clip0_193_1275">
<rect width="28" height="28" fill="white"/>
</clipPath>
</defs>
</svg>
