<svg width="28" height="28" viewBox="0 0 28 28" fill="none" xmlns="http://www.w3.org/2000/svg">
<g clip-path="url(#clip0_193_1073)">
<path d="M17 4H10C6.68629 4 4 6.68629 4 10V17C4 20.3137 6.68629 23 10 23H17C20.3137 23 23 20.3137 23 17V10C23 6.68629 20.3137 4 17 4Z" fill="#C4C4C4" stroke="#C4C4C4" stroke-width="9" stroke-linejoin="round"/>
<path d="M17 4H10C6.68629 4 4 6.68629 4 10V17C4 20.3137 6.68629 23 10 23H17C20.3137 23 23 20.3137 23 17V10C23 6.68629 20.3137 4 17 4Z" fill="#F7F3F2"/>
<path d="M16.9993 7.5C16.9993 8.3284 16.3277 9 15.4993 9C14.6709 9 13.9993 8.3284 13.9993 7.5C13.9993 6.6716 14.6709 6 15.4993 6C16.3277 6 16.9993 6.6716 16.9993 7.5ZM16.9993 17C16.447 17 15.9993 17.4477 15.9993 18C15.9993 18.5523 16.447 19 16.9993 19C17.5516 19 17.9993 18.5523 17.9993 18C17.9993 17.4477 17.5516 17 16.9993 17ZM18.8393 12.09L16.9293 10.18C16.8392 10.0675 16.7034 10.0014 16.5593 10H9.49929C9.22319 10 8.99929 10.2239 8.99929 10.5C8.99929 10.7761 9.22319 11 9.49929 11H12.1993L8.99929 17.3C8.98549 17.366 8.98549 17.434 8.99929 17.5C8.94129 17.7761 9.11819 18.047 9.39429 18.105C9.67039 18.163 9.94129 17.9861 9.99929 17.71L10.9993 16H12.9993L11.0693 20.24C11.0221 20.3184 10.9979 20.4085 10.9993 20.5C10.9441 20.7761 11.1232 21.0448 11.3993 21.1C11.6754 21.1552 11.9441 20.9761 11.9993 20.7L16.6993 11.32L18.1393 12.8C18.3503 12.9782 18.6657 12.9516 18.8439 12.7407C19.003 12.5523 19.0011 12.2761 18.8393 12.09Z" fill="#1F30ED"/>
</g>
<defs>
<clipPath id="clip0_193_1073">
<rect width="28" height="28" fill="white"/>
</clipPath>
</defs>
</svg>
