<svg width="28" height="28" viewBox="0 0 28 28" fill="none" xmlns="http://www.w3.org/2000/svg">
<g clip-path="url(#clip0_193_1197)">
<path d="M17 4H10C6.68629 4 4 6.68629 4 10V17C4 20.3137 6.68629 23 10 23H17C20.3137 23 23 20.3137 23 17V10C23 6.68629 20.3137 4 17 4Z" fill="#C4C4C4" stroke="#C4C4C4" stroke-width="9" stroke-linejoin="round"/>
<path d="M17 4H10C6.68629 4 4 6.68629 4 10V17C4 20.3137 6.68629 23 10 23H17C20.3137 23 23 20.3137 23 17V10C23 6.68629 20.3137 4 17 4Z" fill="#F7F3F2"/>
<path d="M14.7533 12.2786C14.6762 12.3244 14.5881 12.3485 14.4983 12.3485C14.4086 12.3485 14.3205 12.3244 14.2433 12.2786C13.7777 11.96 13.3826 11.549 13.0827 11.071C12.7828 10.5931 12.5846 10.0585 12.5003 9.50061C12.4573 8.95122 12.252 8.42701 11.9103 7.99461L11.8913 7.96761C11.8583 7.9265 11.8388 7.87622 11.8353 7.82361C11.8335 7.79029 11.8386 7.75694 11.8505 7.72576C11.8624 7.69457 11.8808 7.66625 11.9044 7.64265C11.928 7.61905 11.9563 7.6007 11.9875 7.5888C12.0187 7.57691 12.052 7.57173 12.0853 7.57361C12.1047 7.57517 12.1238 7.57886 12.1423 7.58461C12.6607 7.77901 13.1259 8.09282 13.5003 8.50061L14.2803 6.94061C14.3008 6.89977 14.3322 6.86542 14.371 6.84141C14.4099 6.8174 14.4547 6.80469 14.5003 6.80469C14.546 6.80469 14.5908 6.8174 14.6296 6.84141C14.6685 6.86542 14.6999 6.89977 14.7203 6.94061L15.5003 8.50061C15.8672 8.09498 16.3266 7.78385 16.8393 7.59361C16.8711 7.58061 16.905 7.57349 16.9393 7.57261C17.1143 7.58161 17.1513 7.69161 17.1603 7.82161C17.1562 7.87113 17.1415 7.9192 17.1173 7.96261C16.8308 8.439 16.6225 8.95826 16.5003 9.50061C16.4154 10.0588 16.2165 10.5935 15.9159 11.0714C15.6153 11.5493 15.2196 11.9603 14.7533 12.2786ZM11.0003 14.0006H12.2893C12.3556 14.0006 12.4192 13.9743 12.4661 13.9274C12.513 13.8805 12.5393 13.8169 12.5393 13.7506C12.5369 13.6951 12.5154 13.6421 12.4783 13.6006L10.7003 11.2356C10.6764 11.207 10.6465 11.1841 10.6127 11.1683C10.5789 11.1525 10.5421 11.1443 10.5048 11.1443C10.4676 11.1443 10.4307 11.1525 10.397 11.1683C10.3632 11.1841 10.3333 11.207 10.3093 11.2356L8.51834 13.5896C8.48088 13.6352 8.45913 13.6917 8.45634 13.7506C8.45634 13.8169 8.48268 13.8805 8.52957 13.9274C8.57645 13.9743 8.64004 14.0006 8.70634 14.0006H10.0003L7.33534 16.6006C7.30101 16.6442 7.28078 16.6972 7.27734 16.7526C7.27761 16.7854 7.28433 16.8179 7.29714 16.8481C7.30994 16.8784 7.32858 16.9058 7.35198 16.9288C7.37538 16.9518 7.40309 16.97 7.43352 16.9824C7.46395 16.9947 7.49651 17.0009 7.52934 17.0006H9.00034L7.43534 18.5656C7.39981 18.6013 7.37562 18.6467 7.36583 18.696C7.35604 18.7454 7.36109 18.7966 7.38034 18.8431C7.39959 18.8896 7.43218 18.9294 7.474 18.9574C7.51582 18.9855 7.565 19.0005 7.61534 19.0006H10.0003V20.0006H11.0003V19.0006H13.3853C13.4357 19.0005 13.4849 18.9855 13.5267 18.9574C13.5685 18.9294 13.6011 18.8896 13.6203 18.8431C13.6396 18.7966 13.6446 18.7454 13.6349 18.696C13.6251 18.6467 13.6009 18.6013 13.5653 18.5656L12.0003 17.0006H13.4713C13.5376 17.0006 13.6012 16.9743 13.6481 16.9274C13.695 16.8805 13.7213 16.8169 13.7213 16.7506C13.7202 16.6957 13.6996 16.6429 13.6633 16.6016L11.0003 14.0006ZM20.3453 17.7486C20.3453 17.8154 20.3188 17.8795 20.2715 17.9268C20.2243 17.9741 20.1602 18.0006 20.0933 18.0006H14.9083C14.8653 18.0007 14.8229 17.9898 14.7853 17.969C14.7477 17.9481 14.716 17.9179 14.6933 17.8813C14.6707 17.8447 14.6578 17.8029 14.6558 17.7599C14.6539 17.7169 14.663 17.6741 14.6823 17.6356L17.2703 12.4516C17.2913 12.4097 17.3234 12.3744 17.3633 12.3498C17.4031 12.3252 17.449 12.3121 17.4958 12.3121C17.5427 12.3121 17.5886 12.3252 17.6284 12.3498C17.6683 12.3744 17.7004 12.4097 17.7213 12.4516L20.3213 17.6356C20.338 17.6709 20.3462 17.7096 20.3453 17.7486ZM18.7503 16.0006L17.5003 13.5006L16.2503 16.0006H18.7503Z" fill="#1F30ED"/>
</g>
<defs>
<clipPath id="clip0_193_1197">
<rect width="28" height="28" fill="white"/>
</clipPath>
</defs>
</svg>
