<svg width="28" height="28" viewBox="0 0 28 28" fill="none" xmlns="http://www.w3.org/2000/svg">
<g clip-path="url(#clip0_193_1132)">
<path d="M17 4H10C6.68629 4 4 6.68629 4 10V17C4 20.3137 6.68629 23 10 23H17C20.3137 23 23 20.3137 23 17V10C23 6.68629 20.3137 4 17 4Z" fill="#C4C4C4" stroke="#C4C4C4" stroke-width="9" stroke-linejoin="round"/>
<path d="M17 4H10C6.68629 4 4 6.68629 4 10V17C4 20.3137 6.68629 23 10 23H17C20.3137 23 23 20.3137 23 17V10C23 6.68629 20.3137 4 17 4Z" fill="#F7F3F2"/>
<path d="M18.6 14.7L17.5 12.5C17.4055 12.3464 17.2731 12.2197 17.1155 12.1321C16.9579 12.0445 16.7803 11.999 16.6 12H10.4C10.2197 11.999 10.0421 12.0445 9.88451 12.1321C9.72688 12.2197 9.59445 12.3464 9.5 12.5L8.4 14.7L7.16 15.852C7.10949 15.8988 7.0692 15.9556 7.04166 16.0188C7.01413 16.0819 6.99995 16.1501 7 16.219V20.5C7 20.6326 7.05268 20.7598 7.14645 20.8536C7.24021 20.9473 7.36739 21 7.5 21H9.5C9.7 21 10 20.8 10 20.6V20H17V20.5C17 20.7 17.2 21 17.4 21H19.5C19.6326 21 19.7598 20.9473 19.8536 20.8536C19.9473 20.7598 20 20.6326 20 20.5V16.219C20.0001 16.1501 19.9859 16.0819 19.9583 16.0188C19.9308 15.9556 19.8905 15.8988 19.84 15.852L18.6 14.7ZM10.5 13H16.5L17.5 15H9.5L10.5 13ZM11 17.6C11 17.8 10.7 18 10.5 18H8.4C8.2 18 8 17.7 8 17.5V16.4C8.1 16.1 8.3 15.9 8.6 16L10.6 16.4C10.8 16.4 11 16.7 11 16.9V17.6ZM19 17.5C19 17.7 18.8 18 18.6 18H16.5C16.3 18 16 17.8 16 17.6V16.9C16 16.7 16.2 16.4 16.4 16.4L18.4 16C18.7 15.9 18.9 16.1 19 16.4V17.5ZM19.5 6H17C16.7348 6 16.4804 6.10536 16.2929 6.29289C16.1054 6.48043 16 6.73478 16 7H8L7 8V9L8 10L9.5 8.5L11 10L12.5 8.5L14 10H16C16 10.2652 16.1054 10.5196 16.2929 10.7071C16.4804 10.8946 16.7348 11 17 11H19.5C19.6326 11 19.7598 10.9473 19.8536 10.8536C19.9473 10.7598 20 10.6326 20 10.5V6.5C20 6.36739 19.9473 6.24021 19.8536 6.14645C19.7598 6.05268 19.6326 6 19.5 6ZM19 9.5C19 9.63261 18.9473 9.75979 18.8536 9.85355C18.7598 9.94732 18.6326 10 18.5 10C18.3674 10 18.2402 9.94732 18.1464 9.85355C18.0527 9.75979 18 9.63261 18 9.5V7.5C18 7.36739 18.0527 7.24021 18.1464 7.14645C18.2402 7.05268 18.3674 7 18.5 7C18.6326 7 18.7598 7.05268 18.8536 7.14645C18.9473 7.24021 19 7.36739 19 7.5V9.5Z" fill="#1F30ED"/>
</g>
<defs>
<clipPath id="clip0_193_1132">
<rect width="28" height="28" fill="white"/>
</clipPath>
</defs>
</svg>
