<svg width="28" height="28" viewBox="0 0 28 28" fill="none" xmlns="http://www.w3.org/2000/svg">
<g clip-path="url(#clip0_193_1221)">
<path d="M17 4H10C6.68629 4 4 6.68629 4 10V17C4 20.3137 6.68629 23 10 23H17C20.3137 23 23 20.3137 23 17V10C23 6.68629 20.3137 4 17 4Z" fill="#C4C4C4" stroke="#C4C4C4" stroke-width="9" stroke-linejoin="round"/>
<path d="M17 4H10C6.68629 4 4 6.68629 4 10V17C4 20.3137 6.68629 23 10 23H17C20.3137 23 23 20.3137 23 17V10C23 6.68629 20.3137 4 17 4Z" fill="#F7F3F2"/>
<path d="M8 7C8 7 7 7 7 8V13.1582C7 14.8885 7.354 17 10.5 17H11V14L8.5 15C8.5 15 8.5 12.5 11 12.5V11C11 10.2922 11.0868 9.6791 11.5 9.2246C11.8815 8.805 12.5046 7.9674 14.1562 8.7539L15 9.3027V8C15 8 15 7 14 7C13.2922 7 12.0224 8 11 8C9.9776 8 8.7865 7 8 7ZM9 9C9.5523 9 10 9.4477 10 10C10 10.5523 9.5523 11 9 11C8.4477 11 8 10.5523 8 10C8 9.4477 8.4477 9 9 9ZM13 10C13 10 12 10 12 11V16C12 18 13 20 16 20C19 20 20 18 20 16V11C20 10 19 10 19 10C18.2922 10 17.0224 11 16 11C14.9776 11 13.7865 10 13 10ZM14 12C14.5523 12 15 12.4477 15 13C15 13.5523 14.5523 14 14 14C13.4477 14 13 13.5523 13 13C13 12.4477 13.4477 12 14 12ZM18 12C18.5523 12 19 12.4477 19 13C19 13.5523 18.5523 14 18 14C17.4477 14 17 13.5523 17 13C17 12.4477 17.4477 12 18 12ZM13.5 16H16H18.5C18.5 16 18.5 18.5 16 18.5C13.5 18.5 13.5 16 13.5 16Z" fill="#1F30ED"/>
</g>
<defs>
<clipPath id="clip0_193_1221">
<rect width="28" height="28" fill="white"/>
</clipPath>
</defs>
</svg>
