<svg width="28" height="28" viewBox="0 0 28 28" fill="none" xmlns="http://www.w3.org/2000/svg">
<g clip-path="url(#clip0_193_1263)">
<path d="M17 4H10C6.68629 4 4 6.68629 4 10V17C4 20.3137 6.68629 23 10 23H17C20.3137 23 23 20.3137 23 17V10C23 6.68629 20.3137 4 17 4Z" fill="#C4C4C4" stroke="#C4C4C4" stroke-width="9" stroke-linejoin="round"/>
<path d="M17 4H10C6.68629 4 4 6.68629 4 10V17C4 20.3137 6.68629 23 10 23H17C20.3137 23 23 20.3137 23 17V10C23 6.68629 20.3137 4 17 4Z" fill="#F7F3F2"/>
<path d="M17 19V18H19V17H15.5V16H19V15H17V14H19V13H17V12H19V11H15.5V10H19V9H17V8H19V7H14V20H19V19H17ZM12 17H8V7H12V17ZM12 18L10 20L8 18H12Z" fill="#1F30ED"/>
</g>
<defs>
<clipPath id="clip0_193_1263">
<rect width="28" height="28" fill="white"/>
</clipPath>
</defs>
</svg>
