<svg xmlns="http://www.w3.org/2000/svg" viewBox="0 0 28 28" height="28" width="28"><title>car.svg</title><rect fill="none" x="0" y="0" width="28" height="28"></rect><rect x="4" y="4" rx="6" ry="6" width="19" height="19" stroke="#c4c4c4" style="stroke-linejoin:round;stroke-miterlimit:4;" fill="#c4c4c4" stroke-width="9"></rect><rect x="4" y="4" width="19" height="19" rx="6" ry="6" fill="#f7f3f2"></rect><path fill="#1f30ed" transform="translate(6 6)" d="M13.84,6.852,12.6,5.7,11.5,3.5a1.05,1.05,0,0,0-.9-.5H4.4a1.05,1.05,0,0,0-.9.5L2.4,5.7,1.16,6.852A.5.5,0,0,0,1,7.219V11.5a.5.5,0,0,0,.5.5h2c.2,0,.5-.2.5-.4V11h7v.5c0,.2.2.5.4.5h2.1a.5.5,0,0,0,.5-.5V7.219A.5.5,0,0,0,13.84,6.852ZM4.5,4h6l1,2h-8ZM5,8.6c0,.2-.3.4-.5.4H2.4C2.2,9,2,8.7,2,8.5V7.4c.1-.3.3-.5.6-.4l2,.4c.2,0,.4.3.4.5Zm8-.1c0,.2-.2.5-.4.5H10.5c-.2,0-.5-.2-.5-.4V7.9c0-.2.2-.5.4-.5l2-.4c.3-.1.5.1.6.4Z"></path></svg>