<svg xmlns="http://www.w3.org/2000/svg" viewBox="0 0 28 28" height="28" width="28"><title>castle-JP.svg</title><rect fill="none" x="0" y="0" width="28" height="28"></rect><rect x="4" y="4" rx="6" ry="6" width="19" height="19" stroke="#c4c4c4" style="stroke-linejoin:round;stroke-miterlimit:4;" fill="#c4c4c4" stroke-width="9"></rect><rect x="4" y="4" width="19" height="19" rx="6" ry="6" fill="#f7f3f2"></rect><path fill="#1f30ed" transform="translate(6 6)" d="M12.5,12.75a1,1,0,0,1-1-.9995V7.25H10a1,1,0,0,1-1-1v-2H6v2a1,1,0,0,1-1,1H3.5v4.5a1,1,0,0,1-2,0V6.25a1,1,0,0,1,1-1H4v-2a1,1,0,0,1,1-1h5a1,1,0,0,1,1,1v2h1.5a1,1,0,0,1,1,1v5.5a1,1,0,0,1-.9995,1Z"></path></svg>