<svg xmlns="http://www.w3.org/2000/svg" viewBox="0 0 28 28" height="28" width="28"><title>cemetery-JP.svg</title><rect fill="none" x="0" y="0" width="28" height="28"></rect><rect x="4" y="4" rx="6" ry="6" width="19" height="19" stroke="#c4c4c4" style="stroke-linejoin:round;stroke-miterlimit:4;" fill="#c4c4c4" stroke-width="9"></rect><rect x="4" y="4" width="19" height="19" rx="6" ry="6" fill="#f7f3f2"></rect><path fill="#1f30ed" transform="translate(6 6)" d="M11.5,11h-3V2.5a.9448.9448,0,0,0-1-1,.9448.9448,0,0,0-1,1V11h-3a1,1,0,0,0,0,2h8a.9448.9448,0,0,0,1-1A1.0022,1.0022,0,0,0,11.5,11Z"></path></svg>