<svg width="28" height="28" viewBox="0 0 28 28" fill="none" xmlns="http://www.w3.org/2000/svg">
<g clip-path="url(#clip0_193_1079)">
<path d="M17 4H10C6.68629 4 4 6.68629 4 10V17C4 20.3137 6.68629 23 10 23H17C20.3137 23 23 20.3137 23 17V10C23 6.68629 20.3137 4 17 4Z" fill="#C4C4C4" stroke="#C4C4C4" stroke-width="9" stroke-linejoin="round"/>
<path d="M17 4H10C6.68629 4 4 6.68629 4 10V17C4 20.3137 6.68629 23 10 23H17C20.3137 23 23 20.3137 23 17V10C23 6.68629 20.3137 4 17 4Z" fill="#F7F3F2"/>
<path d="M18.0166 18.5H20.5L18 21V18.5165C17.6995 18.8205 17.2908 18.9933 16.8633 18.9971C16.5029 18.9973 16.153 18.8758 15.8702 18.6523C15.1262 18.0149 14.529 17.2238 14.1198 16.3335C13.7106 15.4433 13.4992 14.475 13.4999 13.4952C13.5007 12.5154 13.7137 11.5474 14.1243 10.6578C14.5349 9.76819 15.1333 8.97807 15.8783 8.3418C16.1869 8.10235 16.5717 7.98262 16.9617 8.00471C17.3517 8.02681 17.7205 8.18923 18 8.462V6L20.5 8.5H18.036C18.0792 8.54065 18.1201 8.58369 18.1585 8.6289C18.2894 8.79738 18.3858 8.99001 18.4422 9.19576C18.4986 9.40151 18.5139 9.61637 18.4873 9.82804C18.4606 10.0397 18.3925 10.2441 18.2868 10.4294C18.1812 10.6147 18.04 10.7774 17.8714 10.9082C17.5161 11.2386 17.233 11.6391 17.04 12.0843C16.847 12.5295 16.7483 13.0099 16.75 13.4951C16.75 13.9867 16.8519 14.473 17.0492 14.9233C17.2465 15.3736 17.535 15.7781 17.8965 16.1113C18.2259 16.385 18.4347 16.7769 18.4782 17.203C18.5217 17.629 18.3963 18.055 18.129 18.3896C18.0949 18.4315 18.0535 18.4624 18.0166 18.5ZM8.50403 6L7.50403 11.5C7.35763 12.305 9.28553 12.681 9.25403 13.5L9.00403 20C8.99875 20.1327 9.021 20.2651 9.06939 20.3888C9.11778 20.5126 9.19125 20.6249 9.28518 20.7189C9.37911 20.8128 9.49147 20.8863 9.61519 20.9346C9.7389 20.983 9.87129 21.0053 10.004 21C10.1368 21.0053 10.2692 20.983 10.3929 20.9346C10.5166 20.8863 10.6289 20.8128 10.7229 20.7189C10.8168 20.6249 10.8903 20.5126 10.9387 20.3888C10.9871 20.2651 11.0093 20.1327 11.004 20L10.754 13.5C10.7226 12.6824 12.4874 12.3192 12.504 11.5L11.504 6H11.004L11.254 10L10.504 10.5L10.254 6H9.75403L9.50403 10.5L8.75403 10L9.00403 6H8.50403Z" fill="#1F30ED"/>
</g>
<defs>
<clipPath id="clip0_193_1079">
<rect width="28" height="28" fill="white"/>
</clipPath>
</defs>
</svg>
