<svg width="28" height="28" viewBox="0 0 28 28" fill="none" xmlns="http://www.w3.org/2000/svg">
<g clip-path="url(#clip0_193_1138)">
<path d="M17 4H10C6.68629 4 4 6.68629 4 10V17C4 20.3137 6.68629 23 10 23H17C20.3137 23 23 20.3137 23 17V10C23 6.68629 20.3137 4 17 4Z" fill="#C4C4C4" stroke="#C4C4C4" stroke-width="9" stroke-linejoin="round"/>
<path d="M17 4H10C6.68629 4 4 6.68629 4 10V17C4 20.3137 6.68629 23 10 23H17C20.3137 23 23 20.3137 23 17V10C23 6.68629 20.3137 4 17 4Z" fill="#F7F3F2"/>
<path d="M13.5 7L6 10.5L8 11.4V13.1C7.4 13.3 7 13.9 7 14.5C7 15.1 7.4 15.7 8 15.9V16L7.1 18.1C6.8 19 7 20 8.5 20C10 20 10.2 19 9.9 18.1L9 16C9.6 15.7 10 15.2 10 14.5C10 13.8 9.6 13.3 9 13.1V11.9L13.5 14L21 10.5L13.5 7ZM17.9 13.5L13.4 15.5L11 14.4V14.5C11 15.2 10.7 15.8 10.2 16.3L10.8 17.7V17.8C10.9 18.2 11 18.6 10.9 19C11.6 19.3 12.4 19.5 13.4 19.5C16.7 19.5 17.9 17.5 17.9 16.5V13.5Z" fill="#1F30ED"/>
</g>
<defs>
<clipPath id="clip0_193_1138">
<rect width="28" height="28" fill="white"/>
</clipPath>
</defs>
</svg>
