<svg xmlns="http://www.w3.org/2000/svg" viewBox="0 0 28 28" height="28" width="28"><title>elevator.svg</title><rect fill="none" x="0" y="0" width="28" height="28"></rect><rect x="4" y="4" rx="6" ry="6" width="19" height="19" stroke="#c4c4c4" style="stroke-linejoin:round;stroke-miterlimit:4;" fill="#c4c4c4" stroke-width="9"></rect><rect x="4" y="4" width="19" height="19" rx="6" ry="6" fill="#f7f3f2"></rect><path fill="#1f30ed" transform="translate(6 6)" d="M11,1H4A1,1,0,0,0,3,2V13a1,1,0,0,0,1,1h7a1,1,0,0,0,1-1V2A1,1,0,0,0,11,1ZM7.5,12.5l-2-4h4Zm-2-6,2-4,2,4Z"></path></svg>