<svg xmlns="http://www.w3.org/2000/svg" viewBox="0 0 28 28" height="28" width="28"><title>ferry-JP.svg</title><rect fill="none" x="0" y="0" width="28" height="28"></rect><rect x="4" y="4" rx="6" ry="6" width="19" height="19" stroke="#c4c4c4" style="stroke-linejoin:round;stroke-miterlimit:4;" fill="#c4c4c4" stroke-width="9"></rect><rect x="4" y="4" width="19" height="19" rx="6" ry="6" fill="#f7f3f2"></rect><path fill="#1f30ed" transform="translate(6 6)" d="M3,7c0,0.5,0,5,0,5c0,0.6,0.4,1,1,1h6c0.6,0,1-0.4,1-1c0,0,0-4.5,0-5c0-2-3-7-4-7S3,5,3,7z M5,11V8c0-3,2-5.5,2-5.5S9,5,9,8
	v3H5z"></path></svg>