<svg width="28" height="28" viewBox="0 0 28 28" fill="none" xmlns="http://www.w3.org/2000/svg">
<g clip-path="url(#clip0_193_1097)">
<path d="M17 4H10C6.68629 4 4 6.68629 4 10V17C4 20.3137 6.68629 23 10 23H17C20.3137 23 23 20.3137 23 17V10C23 6.68629 20.3137 4 17 4Z" fill="#C4C4C4" stroke="#C4C4C4" stroke-width="9" stroke-linejoin="round"/>
<path d="M17 4H10C6.68629 4 4 6.68629 4 10V17C4 20.3137 6.68629 23 10 23H17C20.3137 23 23 20.3137 23 17V10C23 6.68629 20.3137 4 17 4Z" fill="#F7F3F2"/>
<path d="M7 9C6.446 9 6 9.446 6 10V17C6 17.554 6.446 18 7 18H20C20.554 18 21 17.554 21 17V10C21 9.446 20.554 9 20 9H7ZM7 10H8.5C8.7761 10 9 10.2239 9 10.5C9 10.7761 8.7761 11 8.5 11C8.2239 11 8 10.7761 8 10.5L7.5 11C7.7761 11 8 11.2239 8 11.5C8 11.7761 7.7761 12 7.5 12C7.2239 12 7 11.7761 7 11.5V10ZM13.5 10C14.8807 10 16 11.567 16 13.5C16 15.433 14.8807 17 13.5 17C12.1193 17 11 15.433 11 13.5C11 11.567 12.1193 10 13.5 10ZM18.5 10H20V11.5C20 11.7761 19.7761 12 19.5 12C19.2239 12 19 11.7761 19 11.5C19 11.2239 19.2239 11 19.5 11L19 10.5C19 10.7761 18.7761 11 18.5 11C18.2239 11 18 10.7761 18 10.5C18 10.2239 18.2239 10 18.5 10ZM13.5 11.5C13.177 11.5 12.9664 11.6088 12.8184 11.75H14.1817C14.0336 11.6088 13.823 11.5 13.5 11.5ZM12.625 12C12.5795 12.091 12.5633 12.1711 12.5449 12.25H14.4551C14.4367 12.1711 14.4205 12.091 14.375 12H12.625ZM12.5 12.5V12.75H14.5V12.5H12.5ZM12.5 13V13.25H14.5V13H12.5ZM12.5 13.5V13.75H14.5V13.5H12.5ZM12.5 14L12.25 14.25H14.25L14.5 14H12.5ZM12 14.5C12 14.5 12.0353 14.6024 12.1016 14.75H14.375L14 14.5H12ZM7.5 15C7.7761 15 8 15.2239 8 15.5C8 15.7761 7.7761 16 7.5 16L8 16.5C8 16.2239 8.2239 16 8.5 16C8.7761 16 9 16.2239 9 16.5C9 16.7761 8.7761 17 8.5 17H7V15.5C7 15.2239 7.2239 15 7.5 15ZM12.2383 15C12.2842 15.0856 12.3144 15.159 12.375 15.25H14.6426C14.7092 15.1121 14.75 15 14.75 15H12.2383ZM19.5 15C19.7761 15 20 15.2239 20 15.5V17H18.5C18.2239 17 18 16.7761 18 16.5C18 16.2239 18.2239 16 18.5 16C18.7761 16 19 16.2239 19 16.5L19.5 16C19.2239 16 19 15.7761 19 15.5C19 15.2239 19.2239 15 19.5 15ZM12.5664 15.5C12.645 15.5912 12.7311 15.6763 12.8262 15.75H14.2461C14.3462 15.6727 14.4338 15.5883 14.5 15.5H12.5664Z" fill="#1F30ED"/>
</g>
<defs>
<clipPath id="clip0_193_1097">
<rect width="28" height="28" fill="white"/>
</clipPath>
</defs>
</svg>
