<svg xmlns="http://www.w3.org/2000/svg" viewBox="0 0 28 28" height="28" width="28"><title>fire-station-JP.svg</title><rect fill="none" x="0" y="0" width="28" height="28"></rect><rect x="4" y="4" rx="6" ry="6" width="19" height="19" stroke="#c4c4c4" style="stroke-linejoin:round;stroke-miterlimit:4;" fill="#c4c4c4" stroke-width="9"></rect><rect x="4" y="4" width="19" height="19" rx="6" ry="6" fill="#f7f3f2"></rect><path fill="#1f30ed" transform="translate(6 6)" d="M8.5,8.1489V11.75a1,1,0,0,1-2,0V8.1489A5.0084,5.0084,0,0,1,2.5,3.25a1,1,0,0,1,2,0,3,3,0,0,0,6,0,1,1,0,0,1,2,0A5.0082,5.0082,0,0,1,8.5,8.1489Z"></path></svg>