<svg xmlns="http://www.w3.org/2000/svg" viewBox="0 0 28 28" height="28" width="28"><title>furniture.svg</title><rect fill="none" x="0" y="0" width="28" height="28"></rect><rect x="4" y="4" rx="6" ry="6" width="19" height="19" stroke="#c4c4c4" style="stroke-linejoin:round;stroke-miterlimit:4;" fill="#c4c4c4" stroke-width="9"></rect><rect x="4" y="4" width="19" height="19" rx="6" ry="6" fill="#f7f3f2"></rect><path fill="#1f30ed" transform="translate(6 6)" d="M9,10.142V8.5A.5.5,0,0,0,8.5,8h-1a.5.5,0,0,0-.5.5v1.641a3.991,3.991,0,0,0-2.957,3.272.507.507,0,0,0,.5.586h6.922a.507.507,0,0,0,.5-.586A3.991,3.991,0,0,0,9,10.142Zm4.639-3.863-2.5-5A.5.5,0,0,0,10.692,1H5.308a.5.5,0,0,0-.446.276l-2.5,5A.5.5,0,0,0,2.806,7H11V8.5a.5.5,0,0,0,1,0V7h1.194A.5.5,0,0,0,13.639,6.279Z"></path></svg>