<svg width="28" height="28" viewBox="0 0 28 28" fill="none" xmlns="http://www.w3.org/2000/svg">
<g clip-path="url(#clip0_193_1067)">
<path d="M17 4H10C6.68629 4 4 6.68629 4 10V17C4 20.3137 6.68629 23 10 23H17C20.3137 23 23 20.3137 23 17V10C23 6.68629 20.3137 4 17 4Z" fill="#C4C4C4" stroke="#C4C4C4" stroke-width="9" stroke-linejoin="round"/>
<path d="M17 4H10C6.68629 4 4 6.68629 4 10V17C4 20.3137 6.68629 23 10 23H17C20.3137 23 23 20.3137 23 17V10C23 6.68629 20.3137 4 17 4Z" fill="#F7F3F2"/>
<path d="M18.5038 8.25H8.49603C8.22964 8.25235 7.97507 8.36039 7.78831 8.55036C7.60154 8.74034 7.49785 8.9967 7.50003 9.2631V14.8438C7.4994 15.0309 7.5505 15.2146 7.64768 15.3745C7.74486 15.5344 7.88435 15.6644 8.05073 15.75L12.8307 18.5894C13.038 18.695 13.2673 18.75 13.4998 18.75C13.7324 18.75 13.9617 18.695 14.1689 18.5894L18.9493 15.75C19.1157 15.6644 19.2552 15.5345 19.3524 15.3745C19.4496 15.2146 19.5007 15.0309 19.5 14.8438V9.2631C19.5012 9.13116 19.4763 9.0003 19.4268 8.87798C19.3774 8.75566 19.3043 8.64428 19.2118 8.55021C19.1193 8.45613 19.0091 8.3812 18.8877 8.32969C18.7662 8.27818 18.6358 8.2511 18.5038 8.25ZM16.5 13.75H14.5V15.75H12.5V13.75H10.5V11.75H12.5V9.75H14.5V11.75H16.5V13.75Z" fill="#1F30ED"/>
</g>
<defs>
<clipPath id="clip0_193_1067">
<rect width="28" height="28" fill="white"/>
</clipPath>
</defs>
</svg>
