<svg width="28" height="28" viewBox="0 0 28 28" fill="none" xmlns="http://www.w3.org/2000/svg">
<g clip-path="url(#clip0_193_1056)">
<path d="M17 5H10C6.68629 5 4 7.68629 4 11V18C4 21.3137 6.68629 24 10 24H17C20.3137 24 23 21.3137 23 18V11C23 7.68629 20.3137 5 17 5Z" fill="#C4C4C4" stroke="#C4C4C4" stroke-width="9" stroke-linejoin="round"/>
<path d="M17 5H10C6.68629 5 4 7.68629 4 11V18C4 21.3137 6.68629 24 10 24H17C20.3137 24 23 21.3137 23 18V11C23 7.68629 20.3137 5 17 5Z" fill="#F7F3F2"/>
<path d="M7.99976 20.7478C7.99976 20.8859 8.11169 20.9978 8.24976 20.9978H11.9988V17.9978H14.9988V20.9978H18.7478C18.8858 20.9978 18.9978 20.8859 18.9978 20.7478V14.9987H7.99976V20.7478ZM19.9298 13.5778L18.9979 12.7589V9C18.9979 8.44772 18.5501 8 17.9979 8C17.4456 8 16.9979 8.44772 16.9979 9V11L13.6806 8.09C13.5861 7.9897 13.4282 7.98478 13.3277 8.079L13.3167 8.09L7.06756 13.553C6.97316 13.6538 6.97832 13.812 7.07908 13.9064C7.12454 13.949 7.18427 13.973 7.24656 13.9739L8.99976 13.9989H19.7466C19.8846 13.9994 19.9969 13.8878 19.9974 13.7497C19.9976 13.6859 19.9734 13.6243 19.9298 13.5778Z" fill="#1F30ED"/>
</g>
<defs>
<clipPath id="clip0_193_1056">
<rect width="28" height="28" fill="white"/>
</clipPath>
</defs>
</svg>
