<svg width="28" height="28" viewBox="0 0 28 28" fill="none" xmlns="http://www.w3.org/2000/svg">
<g clip-path="url(#clip0_193_1203)">
<path d="M17 4H10C6.68629 4 4 6.68629 4 10V17C4 20.3137 6.68629 23 10 23H17C20.3137 23 23 20.3137 23 17V10C23 6.68629 20.3137 4 17 4Z" fill="#C4C4C4" stroke="#C4C4C4" stroke-width="9" stroke-linejoin="round"/>
<path d="M17 4H10C6.68629 4 4 6.68629 4 10V17C4 20.3137 6.68629 23 10 23H17C20.3137 23 23 20.3137 23 17V10C23 6.68629 20.3137 4 17 4Z" fill="#F7F3F2"/>
<path d="M17.8538 12.4336L17.4407 12.1523C17.9238 11.4405 18.205 10.611 18.2546 9.75217C18.3041 8.89331 18.12 8.03706 17.722 7.2744L17.6385 7.1211L18.074 6.875L18.1648 7.042C18.6049 7.88492 18.8085 8.83138 18.7537 9.78074C18.699 10.7301 18.388 11.6469 17.8538 12.4336ZM19.0059 19.5652V20H8.00586V19.5652H10.4945L12.0432 12.4C12.0673 12.2883 12.1289 12.1882 12.2179 12.1164C12.3068 12.0446 12.4177 12.0055 12.532 12.0055H13.2575V10.6014C13.008 10.5436 12.7853 10.4035 12.6252 10.2037C12.4651 10.0039 12.3769 9.75603 12.3749 9.5C12.3749 9.34809 12.4048 9.19766 12.4629 9.05731C12.5211 8.91696 12.6063 8.78944 12.7137 8.68202C12.8211 8.5746 12.9486 8.48939 13.089 8.43126C13.2293 8.37312 13.3797 8.3432 13.5317 8.3432C13.6836 8.3432 13.834 8.37312 13.9743 8.43126C14.1147 8.48939 14.2422 8.5746 14.3496 8.68202C14.4571 8.78944 14.5423 8.91696 14.6004 9.05731C14.6585 9.19766 14.6885 9.34809 14.6885 9.5C14.6863 9.76446 14.5922 10.0199 14.4223 10.2226C14.2525 10.4254 14.0174 10.5627 13.7575 10.6112V12.0059H14.4798C14.594 12.0059 14.7048 12.045 14.7937 12.1167C14.8826 12.1884 14.9443 12.2884 14.9685 12.4L16.5163 19.5648L19.0059 19.5652ZM14.4536 14.751H12.5581L12.2353 16.2441H14.7763L14.4536 14.751ZM12.1272 16.7441L11.8039 18.2393H15.2075L14.8844 16.7441H12.1272ZM12.9353 13.0059L12.6662 14.251H14.3456L14.0764 13.0059H12.9353ZM11.5172 19.5652H15.4941L15.3155 18.7393H11.6955L11.5172 19.5652ZM11.2093 11.0137C10.9106 10.5602 10.7527 10.0284 10.7556 9.48536C10.7585 8.94232 10.9219 8.41226 11.2254 7.9619L10.8113 7.6826C10.4523 8.21469 10.259 8.84115 10.2556 9.48297C10.2522 10.1248 10.439 10.7533 10.7923 11.2891L11.2093 11.0137ZM16.7561 9.5C16.7567 8.86519 16.571 8.24417 16.222 7.7139L15.804 7.9893C16.1019 8.44264 16.2591 8.97391 16.256 9.51636C16.2529 10.0588 16.0895 10.5882 15.7864 11.0381L16.2005 11.3174C16.5635 10.7809 16.757 10.1478 16.7561 9.5ZM9.53346 12.1182C9.04919 11.3822 8.77852 10.5263 8.75153 9.64572C8.72454 8.76512 8.94228 7.89427 9.38056 7.13L8.94706 6.88C8.46253 7.72478 8.22183 8.68741 8.25174 9.66082C8.28165 10.6342 8.58098 11.5803 9.11646 12.3937L9.53346 12.1182Z" fill="#1F30ED"/>
</g>
<defs>
<clipPath id="clip0_193_1203">
<rect width="28" height="28" fill="white"/>
</clipPath>
</defs>
</svg>
