<svg xmlns="http://www.w3.org/2000/svg" viewBox="0 0 28 28" height="28" width="28"><title>monument-JP.svg</title><rect fill="none" x="0" y="0" width="28" height="28"></rect><rect x="4" y="4" rx="6" ry="6" width="19" height="19" stroke="#c4c4c4" style="stroke-linejoin:round;stroke-miterlimit:4;" fill="#c4c4c4" stroke-width="9"></rect><rect x="4" y="4" width="19" height="19" rx="6" ry="6" fill="#f7f3f2"></rect><path fill="#1f30ed" transform="translate(6 6)" d="M12,13H4c-0.5,0-1-0.5-1-1V5c0-2,0.8-4,4-4c3.1,0,4,2,4,4v6h1c0.5,0,1,0.5,1,1S12.5,13,12,13z M5,11h4V5c0-1,0-2-2-2
	S5,4,5,5V11z"></path></svg>