<svg width="28" height="28" viewBox="0 0 28 28" fill="none" xmlns="http://www.w3.org/2000/svg">
<g clip-path="url(#clip0_193_1103)">
<path d="M17 4H10C6.68629 4 4 6.68629 4 10V17C4 20.3137 6.68629 23 10 23H17C20.3137 23 23 20.3137 23 17V10C23 6.68629 20.3137 4 17 4Z" fill="#C4C4C4" stroke="#C4C4C4" stroke-width="9" stroke-linejoin="round"/>
<path d="M17 4H10C6.68629 4 4 6.68629 4 10V17C4 20.3137 6.68629 23 10 23H17C20.3137 23 23 20.3137 23 17V10C23 6.68629 20.3137 4 17 4Z" fill="#F7F3F2"/>
<path d="M16.3008 7.22075C15.9145 7.22075 15.6 7.20005 15.5 8.00005L15.0996 10.5215L17.5 12.5001H19.5C20.9 12.5001 21 11.5411 21 11.5411L19.0996 9.32232C18.3996 8.62232 17.7 8.50005 17 8.50005V8.00005C17 8.00005 17.0675 7.22065 16.3008 7.22075ZM10.75 7.50005C10.75 7.50005 9.79922 7.52065 9.19922 7.72075C8.59922 7.92075 8 8.62114 8 9.62114V13.5215C8 15.2215 7.3 15.5001 7 15.5001C7 15.5001 6 15.5215 6 16.5215V18.7208C6 18.7208 6.00078 19.5215 6.80078 19.5215H7H7.5H8V19.0215V18.8223C8 18.4223 7.8 18.2211 7.5 18.1211V17.0215C8.5 17.0215 8.6 16.8208 9 16.7208L9.55078 18.918C9.65078 19.218 9.75078 19.4176 10.0508 19.5176H11.0508L12 19.5001V18.6993C12 18.0229 11 18.0001 11 18.0001V15.5001H14.5L15.1992 18.1211C15.5992 19.5211 16.5 19.5001 16.5 19.5001H17H18V18.6993C18 17.9875 17 18.0001 17 18.0001L17.0996 13.9219L14 11.5001H9.5V9.50005C9.5 9.10005 9.7765 9.00535 10 9.00005C10.4941 8.98825 10.75 9.00005 10.75 9.00005C11.1642 9.00005 11.5 8.66425 11.5 8.25005C11.5 7.83585 11.1642 7.50005 10.75 7.50005ZM17.75 10.0001C17.8881 10.0001 18 10.112 18 10.2501C18 10.3882 17.8881 10.5001 17.75 10.5001C17.6119 10.5001 17.5 10.3882 17.5 10.2501C17.5 10.112 17.6119 10.0001 17.75 10.0001Z" fill="#1F30ED"/>
</g>
<defs>
<clipPath id="clip0_193_1103">
<rect width="28" height="28" fill="white"/>
</clipPath>
</defs>
</svg>
