<svg width="28" height="28" viewBox="0 0 28 28" fill="none" xmlns="http://www.w3.org/2000/svg">
<g clip-path="url(#clip0_193_1281)">
<path d="M17 4H10C6.68629 4 4 6.68629 4 10V17C4 20.3137 6.68629 23 10 23H17C20.3137 23 23 20.3137 23 17V10C23 6.68629 20.3137 4 17 4Z" fill="#C4C4C4" stroke="#C4C4C4" stroke-width="9" stroke-linejoin="round"/>
<path d="M17 4H10C6.68629 4 4 6.68629 4 10V17C4 20.3137 6.68629 23 10 23H17C20.3137 23 23 20.3137 23 17V10C23 6.68629 20.3137 4 17 4Z" fill="#F7F3F2"/>
<path d="M20 13H7C7.0881 11.6171 7.427 10.2617 8 9H19C19.5731 10.2617 19.9119 11.6171 20 13ZM9 14H18V20H17V15H14V20H9V14ZM10 17H13V15H10V17Z" fill="#1F30ED"/>
</g>
<defs>
<clipPath id="clip0_193_1281">
<rect width="28" height="28" fill="white"/>
</clipPath>
</defs>
</svg>
