<svg width="28" height="28" viewBox="0 0 28 28" fill="none" xmlns="http://www.w3.org/2000/svg">
<g clip-path="url(#clip0_193_1227)">
<path d="M17 4H10C6.68629 4 4 6.68629 4 10V17C4 20.3137 6.68629 23 10 23H17C20.3137 23 23 20.3137 23 17V10C23 6.68629 20.3137 4 17 4Z" fill="#C4C4C4" stroke="#C4C4C4" stroke-width="9" stroke-linejoin="round"/>
<path d="M17 4H10C6.68629 4 4 6.68629 4 10V17C4 20.3137 6.68629 23 10 23H17C20.3137 23 23 20.3137 23 17V10C23 6.68629 20.3137 4 17 4Z" fill="#F7F3F2"/>
<path d="M13.5 6L7 9.5V10H20V9.5L13.5 6ZM8 11V16L7 17.6V19H20V17.6L19 16V11H8ZM10 12H11V17.5H10V12ZM13 12H14V17.5H13V12ZM16 12H17V17.5H16V12Z" fill="#1F30ED"/>
</g>
<defs>
<clipPath id="clip0_193_1227">
<rect width="28" height="28" fill="white"/>
</clipPath>
</defs>
</svg>
