<svg width="28" height="28" viewBox="0 0 28 28" fill="none" xmlns="http://www.w3.org/2000/svg">
<g clip-path="url(#clip0_193_1215)">
<path d="M17 4H10C6.68629 4 4 6.68629 4 10V17C4 20.3137 6.68629 23 10 23H17C20.3137 23 23 20.3137 23 17V10C23 6.68629 20.3137 4 17 4Z" fill="#C4C4C4" stroke="#C4C4C4" stroke-width="9" stroke-linejoin="round"/>
<path d="M17 4H10C6.68629 4 4 6.68629 4 10V17C4 20.3137 6.68629 23 10 23H17C20.3137 23 23 20.3137 23 17V10C23 6.68629 20.3137 4 17 4Z" fill="#F7F3F2"/>
<path d="M14.911 9.85355C14.9388 9.87679 14.9612 9.90585 14.9766 9.93868C14.992 9.9715 15 10.0073 15 10.0436V13.7496C15 13.8159 14.9737 13.8794 14.9268 13.9263C14.8799 13.9732 14.8163 13.9996 14.75 13.9996H12.25C12.1837 13.9996 12.1201 13.9732 12.0732 13.9263C12.0263 13.8794 12 13.8159 12 13.7496V11.9996H11V13.7496C11 13.8159 10.9737 13.8794 10.9268 13.9263C10.8799 13.9732 10.8163 13.9996 10.75 13.9996H8.25C8.1837 13.9996 8.12011 13.9732 8.07322 13.9263C8.02634 13.8794 8 13.8159 8 13.7496V10.0496C8.00005 10.0133 8.00804 9.9775 8.02342 9.94468C8.03879 9.91185 8.06118 9.88279 8.089 9.85955L11.343 7.13155C11.3871 7.09452 11.4429 7.07422 11.5005 7.07422C11.5581 7.07422 11.6139 7.09452 11.658 7.13155L14.911 9.85355ZM13.752 15.4996C13.7029 15.4996 13.6548 15.5142 13.614 15.5416L11 17.4996H10V15.4996C10 15.3669 9.94732 15.2398 9.85355 15.146C9.75979 15.0522 9.63261 14.9996 9.5 14.9996C9.36739 14.9996 9.24021 15.0522 9.14645 15.146C9.05268 15.2398 9 15.3669 9 15.4996V17.4996H8V15.4996C8 15.3669 7.94732 15.2398 7.85355 15.146C7.75979 15.0522 7.63261 14.9996 7.5 14.9996C7.36739 14.9996 7.24021 15.0522 7.14645 15.146C7.05268 15.2398 7 15.3669 7 15.4996V19.7496C7 19.8159 7.02634 19.8794 7.07322 19.9263C7.12011 19.9732 7.1837 19.9996 7.25 19.9996H13.75C13.8163 19.9996 13.8799 19.9732 13.9268 19.9263C13.9737 19.8794 14 19.8159 14 19.7496V15.7496C14.0003 15.7168 13.994 15.6844 13.9817 15.654C13.9694 15.6237 13.9511 15.5961 13.9281 15.5729C13.905 15.5497 13.8776 15.5312 13.8474 15.5186C13.8171 15.506 13.7847 15.4996 13.752 15.4996ZM20 12.2446V18.7446C20 18.8117 19.9733 18.876 19.9259 18.9234C19.8785 18.9709 19.8141 18.9976 19.747 18.9976H16.253C16.1862 18.9976 16.1222 18.9712 16.0748 18.9242C16.0274 18.8771 16.0005 18.8133 16 18.7466V12.2496C15.9999 12.2167 16.0062 12.1841 16.0188 12.1537C16.0313 12.1233 16.0497 12.0957 16.0729 12.0725C16.0962 12.0492 16.1238 12.0308 16.1542 12.0183C16.1846 12.0058 16.2171 11.9994 16.25 11.9996H17V11.2486C17 11.1825 17.0262 11.1192 17.0729 11.0725C17.1196 11.0258 17.183 10.9996 17.249 10.9996H18.749C18.8158 11.0001 18.8796 11.027 18.9266 11.0744C18.9736 11.1217 19 11.1858 19 11.2526V11.9996H19.755C19.82 11.9996 19.8823 12.0254 19.9282 12.0713C19.9742 12.1173 20 12.1796 20 12.2446ZM19 16.9996H17V17.9996H19V16.9996ZM19 14.9996H17V15.9996H19V14.9996ZM19 12.9996H17V13.9996H19V12.9996Z" fill="#1F30ED"/>
</g>
<defs>
<clipPath id="clip0_193_1215">
<rect width="28" height="28" fill="white"/>
</clipPath>
</defs>
</svg>
