<svg width="28" height="28" viewBox="0 0 28 28" fill="none" xmlns="http://www.w3.org/2000/svg">
<g clip-path="url(#clip0_193_1155)">
<path d="M17 4H10C6.68629 4 4 6.68629 4 10V17C4 20.3137 6.68629 23 10 23H17C20.3137 23 23 20.3137 23 17V10C23 6.68629 20.3137 4 17 4Z" fill="#C4C4C4" stroke="#C4C4C4" stroke-width="9" stroke-linejoin="round"/>
<path d="M17 4H10C6.68629 4 4 6.68629 4 10V17C4 20.3137 6.68629 23 10 23H17C20.3137 23 23 20.3137 23 17V10C23 6.68629 20.3137 4 17 4Z" fill="#F7F3F2"/>
<path d="M19.4978 12.9989H18.9649C18.8649 11.8918 18.4296 10.8416 17.7171 9.9884L18.0951 9.61C18.2912 9.41553 18.2924 9.09895 18.098 8.9029C17.907 8.71037 17.5973 8.70518 17.4 8.8912L17.3877 8.9035L17.01 9.2815C16.1567 8.56852 15.1062 8.13286 13.9987 8.0327V7.5C13.9987 7.22386 13.7748 7 13.4987 7C13.2226 7 12.9987 7.22386 12.9987 7.5V8.0327C11.8916 8.13306 10.8414 8.56871 9.9884 9.2815L9.61 8.9C9.41007 8.70952 9.09358 8.71717 8.9031 8.9171C8.7191 9.11022 8.7191 9.41378 8.9031 9.6069L9.2815 9.9844C8.56787 10.8386 8.13216 11.8903 8.0327 12.9989H7.5C7.22386 12.9989 7 13.2228 7 13.4989C7 13.775 7.22386 13.9989 7.5 13.9989H8.0327C8.13257 15.1058 8.5677 16.156 9.28 17.0092L8.9021 17.3871C8.70672 17.5822 8.70653 17.8988 8.90167 18.0942C9.0922 18.285 9.39965 18.2903 9.5967 18.1063L9.609 18.094L9.9869 17.7161C10.8402 18.4292 11.8909 18.8649 12.9984 18.9649V19.4978C12.9984 19.7739 13.2223 19.9978 13.4984 19.9978C13.7745 19.9978 13.9984 19.7739 13.9984 19.4978V18.9649C15.1056 18.8646 16.1558 18.429 17.0089 17.7161L17.3868 18.094C17.5819 18.2894 17.8985 18.2896 18.0939 18.0944C18.2847 17.9039 18.29 17.5964 18.106 17.3994L18.0937 17.3871L17.7158 17.0092C18.4286 16.1561 18.8643 15.1059 18.9646 13.9987H19.4975C19.7736 13.9933 19.993 13.765 19.9876 13.4889C19.9823 13.2206 19.7661 13.0043 19.4978 12.9989ZM13.9987 9.0505C14.8374 9.14298 15.6325 9.47204 16.2913 9.9993L14.1413 12.1493C14.0947 12.1275 14.0469 12.1081 13.9983 12.0913L13.9987 9.0505ZM12.9987 9.0505V12.091C12.9501 12.1078 12.9023 12.1272 12.8557 12.149L10.7057 9.999C11.3647 9.47174 12.1598 9.14278 12.9987 9.0505ZM9.9987 10.7062L12.1487 12.8562C12.1269 12.9028 12.1075 12.9506 12.0907 12.9992H9.0505C9.14293 12.1603 9.47134 11.3651 9.9987 10.7062ZM9.0505 13.9987H12.091C12.1079 14.0473 12.1272 14.0951 12.149 14.1417L9.999 16.2917C9.47173 15.6328 9.14276 14.8375 9.0505 13.9987ZM12.9989 17.9471C12.1602 17.8546 11.3651 17.5256 10.7063 16.9983L12.8563 14.8483C12.9029 14.8701 12.9507 14.8895 12.9993 14.9063L12.9989 17.9471ZM13.9989 17.9471V14.9066C14.0475 14.8898 14.0953 14.8704 14.1419 14.8486L16.2919 16.9986C15.6329 17.5259 14.8378 17.8549 13.9989 17.9471ZM16.9989 16.2914L14.8489 14.1414C14.8707 14.0948 14.89 14.047 14.9069 13.9984H17.9484C17.8556 14.8374 17.5268 15.6327 16.9989 16.2914ZM14.9066 12.9989C14.8898 12.9503 14.8704 12.9025 14.8486 12.8559L16.9986 10.7059C17.5259 11.3647 17.8549 12.1598 17.9474 12.9985L14.9066 12.9989Z" fill="#1F30ED"/>
</g>
<defs>
<clipPath id="clip0_193_1155">
<rect width="28" height="28" fill="white"/>
</clipPath>
</defs>
</svg>
