<svg xmlns="http://www.w3.org/2000/svg" viewBox="0 0 28 28" height="28" width="28"><title>religious-shinto.svg</title><rect fill="none" x="0" y="0" width="28" height="28"></rect><rect x="4" y="4" rx="6" ry="6" width="19" height="19" stroke="#c4c4c4" style="stroke-linejoin:round;stroke-miterlimit:4;" fill="#c4c4c4" stroke-width="9"></rect><rect x="4" y="4" width="19" height="19" rx="6" ry="6" fill="#f7f3f2"></rect><path fill="#1f30ed" transform="translate(6 6)" d="M12.5,2.5H2.5a.9448.9448,0,0,0-1,1,.9448.9448,0,0,0,1,1H3V12a.9448.9448,0,0,0,1,1,.9448.9448,0,0,0,1-1V8h5v4a.9448.9448,0,0,0,1,1,.9448.9448,0,0,0,1-1V4.5h.5a.9448.9448,0,0,0,1-1,.9448.9448,0,0,0-1-1ZM10,6H8V4.5h2ZM7,6H5V4.5H7Z"></path></svg>