<svg width="28" height="28" viewBox="0 0 28 28" fill="none" xmlns="http://www.w3.org/2000/svg">
<g clip-path="url(#clip0_193_1179)">
<path d="M17 4H10C6.68629 4 4 6.68629 4 10V17C4 20.3137 6.68629 23 10 23H17C20.3137 23 23 20.3137 23 17V10C23 6.68629 20.3137 4 17 4Z" fill="#C4C4C4" stroke="#C4C4C4" stroke-width="9" stroke-linejoin="round"/>
<path d="M17 4H10C6.68629 4 4 6.68629 4 10V17C4 20.3137 6.68629 23 10 23H17C20.3137 23 23 20.3137 23 17V10C23 6.68629 20.3137 4 17 4Z" fill="#F7F3F2"/>
<path d="M19.5009 10.9999C19.4247 11.0002 19.3495 10.9831 19.2809 10.9499L13.5009 7.99992L7.72086 10.9299C7.46406 11.0514 7.15736 10.9417 7.03586 10.6849C6.91436 10.4281 7.02406 10.1214 7.28086 9.99992L13.5009 6.91992L19.7209 9.99992C19.997 10.0607 20.1717 10.3338 20.1109 10.6099C20.0501 10.886 19.777 11.0607 19.5009 10.9999ZM11.0009 15.9999H8.00086V18.9999H11.0009V15.9999ZM15.0009 15.9999H12.0009V18.9999H15.0009V15.9999ZM19.0009 15.9999H16.0009V18.9999H19.0009V15.9999ZM17.0009 11.9999H14.0009V14.9999H17.0009V11.9999ZM13.0009 11.9999H10.0009V14.9999H13.0009V11.9999Z" fill="#1F30ED"/>
</g>
<defs>
<clipPath id="clip0_193_1179">
<rect width="28" height="28" fill="white"/>
</clipPath>
</defs>
</svg>
