<svg xmlns="http://www.w3.org/2000/svg" viewBox="0 0 28 28" height="28" width="28"><title>star-stroked.svg</title><rect fill="none" x="0" y="0" width="28" height="28"></rect><rect x="4" y="4" rx="6" ry="6" width="19" height="19" stroke="#c4c4c4" style="stroke-linejoin:round;stroke-miterlimit:4;" fill="#c4c4c4" stroke-width="9"></rect><rect x="4" y="4" width="19" height="19" rx="6" ry="6" fill="#f7f3f2"></rect><path fill="#1f30ed" transform="translate(6 6)" d="M7.5,3.19l1.07,2.68L8.82,6.5h3l-2,1.75l-0.5,0.44l0.23,0.63l1,3.13l-2.48-1.77
	l-0.57-0.4l-0.57,0.4l-2.52,1.77l1-3.13l0.21-0.63l-0.5-0.44l-2-1.75h3l0.25-0.63L7.5,3.19 M7.5,0.5l-2,5h-5l4,3.5l-2,6l5-3.5l5,3.5
	l-2-6l4-3.5h-5L7.5,0.5L7.5,0.5z"></path></svg>