<svg xmlns="http://www.w3.org/2000/svg" viewBox="0 0 28 28" height="28" width="28"><title>suitcase.svg</title><rect fill="none" x="0" y="0" width="28" height="28"></rect><rect x="4" y="4" rx="6" ry="6" width="19" height="19" stroke="#c4c4c4" style="stroke-linejoin:round;stroke-miterlimit:4;" fill="#c4c4c4" stroke-width="9"></rect><rect x="4" y="4" width="19" height="19" rx="6" ry="6" fill="#f7f3f2"></rect><path fill="#1f30ed" transform="translate(6 6)" d="M11,4V2c0-1-1-1-1-1H5.0497
	c0,0-1.1039,0.0015-1.0497,1v2H2c0,0-1,0-1,1v7c0,1,1,1,1,1h11c0,0,1,0,1-1V5c0-1-1-1-1-1H11z M5.5,2.5h4V4h-4V2.5z"></path></svg>