<svg width="28" height="28" viewBox="0 0 28 28" fill="none" xmlns="http://www.w3.org/2000/svg">
<g clip-path="url(#clip0_193_1115)">
<path d="M17 4H10C6.68629 4 4 6.68629 4 10V17C4 20.3137 6.68629 23 10 23H17C20.3137 23 23 20.3137 23 17V10C23 6.68629 20.3137 4 17 4Z" fill="#C4C4C4" stroke="#C4C4C4" stroke-width="9" stroke-linejoin="round"/>
<path d="M17 4H10C6.68629 4 4 6.68629 4 10V17C4 20.3137 6.68629 23 10 23H17C20.3137 23 23 20.3137 23 17V10C23 6.68629 20.3137 4 17 4Z" fill="#F7F3F2"/>
<path d="M18.5547 7C16.4106 7 13.5336 8.471 11.6016 11H10C8.84273 11 8.17943 11.8638 7.72273 12.7773L7.11133 14H8.55473H10L11.5 15.5L13 17V18.4453V19.8887L14.2227 19.2774C15.1362 18.8206 16 18.1573 16 17V15.3984C18.529 13.4664 20 10.5894 20 8.4453V7H18.5547ZM16 10C16.5523 10 17 10.4477 17 11C17 11.5523 16.5523 12 16 12C15.4477 12 15 11.5523 15 11C15 10.4477 15.4477 10 16 10ZM9.50003 16L9.00003 16.5C8.27783 17.2222 8.00003 19 8.00003 19C8.00003 19 9.69803 18.802 10.5 18L11 17.5L9.50003 16Z" fill="#1F30ED"/>
</g>
<defs>
<clipPath id="clip0_193_1115">
<rect width="28" height="28" fill="white"/>
</clipPath>
</defs>
</svg>
