<?xml version="1.0" encoding="UTF-8"?>
<svg version="1.1" xmlns="http://www.w3.org/2000/svg" width="512" height="512">
<path d="M0 0 C0.79249146 -0.0087616 1.58498291 -0.01752319 2.40148926 -0.02655029 C5.01301325 -0.04850145 7.62283474 -0.0340079 10.234375 -0.01708984 C12.05371423 -0.02045924 13.87305127 -0.02531288 15.69238281 -0.03158569 C19.5021715 -0.03895118 23.31137337 -0.02826218 27.12109375 -0.00488281 C32.00065826 0.02360505 36.87884775 0.00719931 41.75836182 -0.02274513 C45.51426524 -0.04082702 49.26984353 -0.03505605 53.02575684 -0.02210617 C54.824668 -0.01877461 56.62360885 -0.02285047 58.42248535 -0.03450394 C60.9387003 -0.04722781 63.45269979 -0.02781685 65.96875 0 C67.08014343 -0.01518173 67.08014343 -0.01518173 68.21398926 -0.03067017 C72.09655206 0.04870929 73.85216615 0.5443891 76.95483398 2.95181274 C79.58958715 6.45067335 79.55767871 9.26655151 79.296875 13.45947266 C79.27431641 14.15234375 79.25175781 14.84521484 79.22851562 15.55908203 C79.17000161 17.25598839 79.0803298 18.95177127 78.984375 20.64697266 C79.64978806 20.6358696 80.31520111 20.62476654 81.0007782 20.61332703 C87.92738419 20.50269607 94.85373918 20.42728927 101.78100586 20.37231445 C104.3660705 20.34717264 106.95106407 20.3130545 109.53588867 20.26977539 C113.25196874 20.20911343 116.96710886 20.18075846 120.68359375 20.15869141 C122.41666023 20.11998177 122.41666023 20.11998177 124.18473816 20.08049011 C132.15711728 20.07770424 132.15711728 20.07770424 136.25512695 22.89770508 C138.09638694 25.82505631 138.48395159 26.78556416 137.953125 30.12353516 C137.1869038 38.01537177 137.1869038 38.01537177 138.984375 45.64697266 C143.91782879 50.57781477 150.94024027 52.85786601 157.28613281 55.45996094 C161.13875924 57.15480981 164.53569035 59.31394865 167.984375 61.70947266 C168.58032471 62.11818604 169.17627441 62.52689941 169.7902832 62.94799805 C178.89100721 69.27942816 187.55430223 76.04648158 195.71484375 83.56103516 C197.8119755 85.48851941 199.94813855 87.35458623 202.109375 89.20947266 C208.98007148 95.22649543 214.992525 101.67865733 220.703125 108.80712891 C222.18030133 110.64601109 223.6791704 112.46776088 225.203125 114.26806641 C235.91221616 126.9568311 244.29032786 140.97736431 251.984375 155.64697266 C252.55454346 156.72011719 252.55454346 156.72011719 253.13623047 157.81494141 C270.80432965 191.48014385 278.44018922 229.1763775 278.359375 266.95947266 C278.35855927 268.40222061 278.35855927 268.40222061 278.35772705 269.87411499 C278.29464429 294.24450042 275.06861352 317.28111014 267.984375 340.64697266 C267.73880859 341.47003906 267.49324219 342.29310547 267.24023438 343.14111328 C257.0983244 376.40336684 238.63388739 407.25582951 214.984375 432.64697266 C213.79197378 434.01772449 212.60423617 435.39255129 211.421875 436.77197266 C205.40485223 443.64266914 198.95269032 449.65512266 191.82421875 455.36572266 C189.98533657 456.84289899 188.16358677 458.34176806 186.36328125 459.86572266 C174.28454922 470.05995712 160.95091997 478.30582301 146.984375 485.64697266 C146.23542969 486.04384277 145.48648437 486.44071289 144.71484375 486.84960938 C121.67853645 498.8882766 96.65583546 506.73846598 70.984375 510.64697266 C69.23991089 510.92190552 69.23991089 510.92190552 67.46020508 511.20239258 C56.11144694 512.82179546 44.87269707 513.00508423 33.421875 512.95947266 C32.44882416 512.9573175 31.47577332 512.95516235 30.47323608 512.95294189 C16.12651768 512.90194523 2.08072155 512.55831682 -12.015625 509.64697266 C-13.49023193 509.34895752 -13.49023193 509.34895752 -14.99462891 509.04492188 C-70.30319111 497.54205063 -123.07168142 467.64090992 -158.015625 422.64697266 C-159.02159854 421.39263565 -160.02814841 420.13876071 -161.03515625 418.88525391 C-195.22840017 375.84193348 -212.54134102 322.64675251 -212.328125 267.95947266 C-212.32630219 266.98830505 -212.32447937 266.01713745 -212.32260132 265.01654053 C-212.27833928 251.01445236 -211.8643427 237.39832991 -209.015625 223.64697266 C-208.85465332 222.79796387 -208.69368164 221.94895508 -208.52783203 221.07421875 C-200.09164753 176.83489962 -179.72403093 135.61685034 -149.015625 102.64697266 C-147.82322378 101.27622083 -146.63548617 99.90139402 -145.453125 98.52197266 C-141.83357512 94.36494901 -137.94825367 90.50555602 -134.015625 86.64697266 C-133.01441654 85.64818258 -132.01421357 84.6483821 -131.015625 83.64697266 C-130.355625 82.98697266 -129.695625 82.32697266 -129.015625 81.64697266 C-129.840625 80.94572266 -130.665625 80.24447266 -131.515625 79.52197266 C-134.015625 76.64697266 -134.015625 76.64697266 -134.45703125 73.80322266 C-133.87868753 69.66780918 -132.39392097 68.1908551 -129.453125 65.27197266 C-128.60621094 64.39798828 -127.75929688 63.52400391 -126.88671875 62.62353516 C-123.28295078 60.1425738 -121.30867317 60.04077836 -117.015625 60.64697266 C-114.45540618 62.33040421 -113.03539802 64.28236034 -111.015625 66.64697266 C-105.75205399 64.8087408 -101.30804804 61.75990943 -96.68725586 58.71484375 C-92.95773628 56.31112264 -89.36655652 54.29449325 -85.22265625 52.68994141 C-78.50325503 50.12207897 -78.50325503 50.12207897 -73.015625 45.64697266 C-71.11399098 39.92356019 -71.68161967 33.81040988 -72.40527344 27.90771484 C-72.015625 25.64697266 -72.015625 25.64697266 -70.27758789 22.89331055 C-65.28681081 19.45643158 -60.63345648 20.02649372 -54.71484375 20.15869141 C-53.52333206 20.16576614 -52.33182037 20.17284088 -51.10420227 20.18013 C-47.30320128 20.2080908 -43.50367986 20.27083792 -39.703125 20.33447266 C-37.12437025 20.3595531 -34.54559238 20.3823667 -31.96679688 20.40283203 C-25.64923582 20.45792335 -19.33253612 20.54156891 -13.015625 20.64697266 C-13.10263672 19.10976563 -13.10263672 19.10976563 -13.19140625 17.54150391 C-13.23832457 16.18087255 -13.28382252 14.8201917 -13.328125 13.45947266 C-13.3909668 12.44916992 -13.3909668 12.44916992 -13.45507812 11.41845703 C-13.5446939 7.74421007 -13.21273155 5.90872331 -10.98608398 2.95181274 C-7.28991276 0.08387764 -4.49380239 -0.06138574 0 0 Z " fill="#FDB40A" transform="translate(223.015625,-0.64697265625)"/>
<path d="M0 0 C0.79249146 -0.0087616 1.58498291 -0.01752319 2.40148926 -0.02655029 C5.01301325 -0.04850145 7.62283474 -0.0340079 10.234375 -0.01708984 C12.05371423 -0.02045924 13.87305127 -0.02531288 15.69238281 -0.03158569 C19.5021715 -0.03895118 23.31137337 -0.02826218 27.12109375 -0.00488281 C32.00065826 0.02360505 36.87884775 0.00719931 41.75836182 -0.02274513 C45.51426524 -0.04082702 49.26984353 -0.03505605 53.02575684 -0.02210617 C54.824668 -0.01877461 56.62360885 -0.02285047 58.42248535 -0.03450394 C60.9387003 -0.04722781 63.45269979 -0.02781685 65.96875 0 C67.08014343 -0.01518173 67.08014343 -0.01518173 68.21398926 -0.03067017 C72.09655206 0.04870929 73.85216615 0.5443891 76.95483398 2.95181274 C79.58958715 6.45067335 79.55767871 9.26655151 79.296875 13.45947266 C79.26303711 14.4987793 79.26303711 14.4987793 79.22851562 15.55908203 C79.17000161 17.25598839 79.0803298 18.95177127 78.984375 20.64697266 C79.64978806 20.6358696 80.31520111 20.62476654 81.0007782 20.61332703 C87.92738419 20.50269607 94.85373918 20.42728927 101.78100586 20.37231445 C104.3660705 20.34717264 106.95106407 20.3130545 109.53588867 20.26977539 C113.25196874 20.20911343 116.96710886 20.18075846 120.68359375 20.15869141 C122.41666023 20.11998177 122.41666023 20.11998177 124.18473816 20.08049011 C125.26548111 20.08011246 126.34622406 20.0797348 127.4597168 20.0793457 C128.40791794 20.06824265 129.35611908 20.05713959 130.33305359 20.04570007 C134.30557327 20.94659695 135.64340027 22.31869686 137.984375 25.64697266 C138.687676 29.11594416 138.61656289 32.50809476 138.55200195 36.03686523 C138.55309715 37.60340851 138.55309715 37.60340851 138.55421448 39.20159912 C138.55073494 42.64876492 138.51185412 46.09457456 138.47265625 49.54150391 C138.46332949 51.93331667 138.45621273 54.32513899 138.45121765 56.71696472 C138.43213739 63.00872218 138.38302652 69.29990146 138.32769775 75.59143066 C138.27652816 82.01285989 138.25370842 88.43438264 138.22851562 94.85595703 C138.17490981 107.45320874 138.09054625 120.05005993 137.984375 132.64697266 C136.91108696 132.6524411 136.91108696 132.6524411 135.81611633 132.65802002 C129.0626975 132.69593555 122.30973381 132.75282804 115.55665302 132.8308754 C112.08503176 132.87033294 108.61366346 132.90252936 105.1418457 132.91796875 C101.14753722 132.93605326 97.15417357 132.98601107 93.16015625 133.03759766 C91.29584709 133.03944061 91.29584709 133.03944061 89.39387512 133.0413208 C88.23304916 133.06103943 87.07222321 133.08075806 85.8762207 133.10107422 C84.85695999 133.10995667 83.83769928 133.11883911 82.78755188 133.12799072 C79.25487705 133.78203237 77.55998698 135.19270565 74.984375 137.64697266 C73.69990581 140.21591103 73.65460356 142.41273603 73.421875 145.27197266 C73.33808594 146.27486328 73.25429688 147.27775391 73.16796875 148.31103516 C73.10738281 149.08189453 73.04679688 149.85275391 72.984375 150.64697266 C71.206073 150.65313599 71.206073 150.65313599 69.3918457 150.65942383 C64.98385428 150.68123254 60.57675328 150.73554007 56.16918945 150.79956055 C54.26335193 150.82272542 52.35738667 150.83713273 50.45141602 150.8425293 C47.70768777 150.85183007 44.96596437 150.89284336 42.22265625 150.93994141 C41.37351151 150.93600876 40.52436676 150.93207611 39.64949036 150.92802429 C35.2575445 151.03580261 33.4987659 151.24253795 29.93261719 154.04638672 C27.84372544 156.42748438 27.84372544 156.42748438 27.57421875 158.96337891 C28.13936283 162.61459068 28.58505113 165.07650999 30.734375 168.14697266 C33.24954004 170.02998883 33.24954004 170.02998883 37.984375 170.64697266 C37.984375 210.24697266 37.984375 249.84697266 37.984375 290.64697266 C34.684375 291.30697266 31.384375 291.96697266 27.984375 292.64697266 C11.78051505 297.24085048 -0.89503819 306.77255921 -9.328125 321.37744141 C-13.34697893 329.1639709 -15.59441728 337.02622585 -17.015625 345.64697266 C-18.52576172 346.01435547 -18.52576172 346.01435547 -20.06640625 346.38916016 C-39.53978832 351.44146 -55.90980467 360.80566461 -69.7734375 375.43212891 C-71.015625 376.64697266 -71.015625 376.64697266 -72.015625 376.64697266 C-72.13000697 332.01678996 -72.21814163 287.38662274 -72.27095165 242.75632243 C-72.27720537 237.4902987 -72.28367696 232.22427526 -72.2902832 226.95825195 C-72.29159476 225.90985772 -72.29290631 224.86146349 -72.2942576 223.78129973 C-72.31602898 206.79383447 -72.35546004 189.80645359 -72.40138898 172.81903843 C-72.44810544 155.39535835 -72.47591021 137.97172254 -72.48606747 120.54798239 C-72.49293662 109.79190271 -72.51465143 99.03606153 -72.55520733 88.28005525 C-72.58158633 80.90963779 -72.589637 73.53934409 -72.58313189 66.16888282 C-72.57992142 61.91301468 -72.58492852 57.65756402 -72.61165237 53.40176964 C-72.63592886 49.50737885 -72.63724972 45.61368748 -72.62011947 41.71926495 C-72.61800139 40.3086733 -72.62439214 38.89803855 -72.64004091 37.48753212 C-72.76407864 25.61956741 -72.76407864 25.61956741 -69.64375305 22.31414032 C-66.63360081 20.40463348 -65.03448541 20.03785251 -61.4909668 20.0793457 C-59.86985237 20.07991219 -59.86985237 20.07991219 -58.21598816 20.08049011 C-57.0606105 20.10629654 -55.90523285 20.13210297 -54.71484375 20.15869141 C-53.52333206 20.16576614 -52.33182037 20.17284088 -51.10420227 20.18013 C-47.30320128 20.2080908 -43.50367986 20.27083792 -39.703125 20.33447266 C-37.12437025 20.3595531 -34.54559238 20.3823667 -31.96679688 20.40283203 C-25.64923582 20.45792335 -19.33253612 20.54156891 -13.015625 20.64697266 C-13.10263672 19.10976563 -13.10263672 19.10976563 -13.19140625 17.54150391 C-13.23832457 16.18087255 -13.28382252 14.8201917 -13.328125 13.45947266 C-13.37001953 12.7859375 -13.41191406 12.11240234 -13.45507812 11.41845703 C-13.5446939 7.74421007 -13.21273155 5.90872331 -10.98608398 2.95181274 C-7.28991276 0.08387764 -4.49380239 -0.06138574 0 0 Z " fill="#0054C9" transform="translate(223.015625,-0.64697265625)"/>
<path d="M0 0 C19.79433009 9.31497886 19.79433009 9.31497886 26.6875 13.8125 C27.47439209 14.31821533 28.26128418 14.82393066 29.07202148 15.3449707 C39.34040841 22.04564314 48.74670561 29.65240238 57.765625 37.94921875 C59.85166886 39.86385691 61.97682046 41.71822958 64.125 43.5625 C70.99569648 49.57952277 77.00815 56.03168468 82.71875 63.16015625 C84.19592633 64.99903843 85.6947954 66.82078823 87.21875 68.62109375 C97.92784116 81.30985845 106.30595286 95.33039165 114 110 C114.3801123 110.71542969 114.76022461 111.43085938 115.15185547 112.16796875 C132.56970052 145.35633122 140.42235482 182.63992779 140.26074219 219.91650391 C140.24983736 222.91979337 140.26080032 225.9225077 140.2734375 228.92578125 C140.2721188 230.84375131 140.26956244 232.76172102 140.265625 234.6796875 C140.26967346 235.57332001 140.27372192 236.46695251 140.27789307 237.38766479 C140.26843658 238.6263884 140.26843658 238.6263884 140.25878906 239.89013672 C140.25719788 240.61385468 140.25560669 241.33757263 140.25396729 242.08322144 C140 244 140 244 138 247 C137.50371094 246.28714844 137.00742187 245.57429687 136.49609375 244.83984375 C123.84522757 227.00380281 106.11383295 215.08840733 84.5 210.8125 C62.28640439 207.48187194 40.79979262 211.93025208 22.4375 225 C10.5410979 233.80307443 3.34923954 243.96959416 -3.08740234 257.16333008 C-10.38106776 272.03200317 -19.27999046 278.96729305 -34 286 C-36.45703125 286.73046875 -36.45703125 286.73046875 -38 287 C-38.25652344 286.27296875 -38.51304687 285.5459375 -38.77734375 284.796875 C-45.64829089 266.75196331 -57.05127512 256.93221574 -73.86352539 248.8503418 C-83.10837122 245.1707854 -89.23622017 245.63316352 -100 245 C-100 205.4 -100 165.8 -100 125 C-101.65 125 -103.3 125 -105 125 C-108.77762527 122.33849128 -110.33411915 119.96922291 -111.125 115.5 C-111.37961557 111.68076643 -111.15103377 111.1907795 -108.625 108 C-107.325625 107.01 -107.325625 107.01 -106 106 C-105.505 105.505 -105.505 105.505 -105 105 C-102.04294679 104.91131701 -99.10934944 104.88479704 -96.15234375 104.90234375 C-94.82270348 104.90446617 -94.82270348 104.90446617 -93.46620178 104.90663147 C-90.62326746 104.91224785 -87.78041069 104.92480309 -84.9375 104.9375 C-83.01497509 104.94251289 -81.09244896 104.94707616 -79.16992188 104.95117188 C-74.44658451 104.96222259 -69.72330542 104.97949817 -65 105 C-65.02755371 104.24799316 -65.05510742 103.49598633 -65.08349609 102.72119141 C-65.10492676 101.73296387 -65.12635742 100.74473633 -65.1484375 99.7265625 C-65.17599121 98.74768066 -65.20354492 97.76879883 -65.23193359 96.76025391 C-64.86764521 92.42483873 -63.16924171 90.86740917 -60 88 C-57.36284904 86.68142452 -55.4016736 86.88008296 -52.44873047 86.88647461 C-51.27141357 86.88659546 -50.09409668 86.88671631 -48.88110352 86.88684082 C-47.01796509 86.89451477 -47.01796509 86.89451477 -45.1171875 86.90234375 C-43.97902588 86.90335083 -42.84086426 86.90435791 -41.66821289 86.90539551 C-37.40379839 86.91063992 -33.13939822 86.9246011 -28.875 86.9375 C-19.34625 86.958125 -9.8175 86.97875 0 87 C0 58.29 0 29.58 0 0 Z " fill="#D8E6EB" transform="translate(361,45)"/>
<path d="M0 0 C0 84.48 0 168.96 0 256 C-5.60881487 253.75647405 -5.60881487 253.75647405 -8.3125 251.0234375 C-8.90603271 250.43884766 -9.49956543 249.85425781 -10.11108398 249.25195312 C-10.73442627 248.63255859 -11.35776855 248.01316406 -12 247.375 C-30.26235699 229.88165475 -51.27924937 223.233216 -76.23046875 223.6953125 C-99.49258561 224.6159065 -117.2604921 236.73486846 -133 253 C-134.66527565 254.66805652 -136.33178638 256.33488172 -138 258 C-140.19158545 246.14762487 -140.35871631 234.514975 -140.3125 222.5 C-140.31067719 221.52133972 -140.30885437 220.54267944 -140.30697632 219.53436279 C-140.2628115 205.47671442 -139.86003804 191.80600287 -137 178 C-136.83902832 177.15099121 -136.67805664 176.30198242 -136.51220703 175.42724609 C-128.07602253 131.18792696 -107.70840593 89.96987768 -77 57 C-75.80759878 55.62924817 -74.61986117 54.25442137 -73.4375 52.875 C-69.81795012 48.71797635 -65.93262867 44.85858336 -62 41 C-60.99879154 40.00120992 -59.99858857 39.00140944 -59 38 C-58.01 37.01 -58.01 37.01 -57 36 C-57.825 35.29875 -58.65 34.5975 -59.5 33.875 C-62 31 -62 31 -62.44140625 28.15625 C-61.86306253 24.02083653 -60.37829597 22.54388244 -57.4375 19.625 C-56.59058594 18.75101563 -55.74367188 17.87703125 -54.87109375 16.9765625 C-51.26732578 14.49560115 -49.29304817 14.3938057 -45 15 C-42.43978118 16.68343155 -41.01977302 18.63538768 -39 21 C-34.50904621 19.43159438 -30.71420031 17.01000777 -26.75 14.4375 C-20.81698383 10.65313752 -14.78897133 7.15470822 -8.5625 3.875 C-7.45310059 3.28996704 -7.45310059 3.28996704 -6.32128906 2.69311523 C-1.146499 0 -1.146499 0 0 0 Z " fill="#BB5D4B" transform="translate(151,45)"/>
<path d="M0 0 C16.63833841 13.55402058 16.63833841 13.55402058 21.296875 22.87109375 C22.5613631 72.81837366 -7.68658747 127.42310578 -40.703125 162.87109375 C-41.89552622 164.24184558 -43.08326383 165.61667238 -44.265625 166.99609375 C-50.27383021 173.85672167 -56.71603012 179.8617618 -63.83203125 185.56640625 C-65.77287446 187.12436203 -67.69710759 188.703203 -69.60546875 190.30078125 C-70.54519531 191.08710938 -71.48492187 191.8734375 -72.453125 192.68359375 C-73.71382812 193.74513672 -73.71382812 193.74513672 -75 194.828125 C-78.10940431 197.17815167 -81.28696845 198.99893899 -84.703125 200.87109375 C-84.92226563 199.74574219 -85.14140625 198.62039063 -85.3671875 197.4609375 C-90.56671064 171.83130533 -101.96067911 150.37080102 -123.515625 134.90625 C-130.06522537 130.72445859 -137.05800182 127.03073397 -144.47265625 124.671875 C-147.703125 122.87109375 -147.703125 122.87109375 -149.2265625 119.21875 C-149.5408041 117.79674075 -149.82394008 116.36755613 -150.078125 114.93359375 C-150.22894531 114.21751953 -150.37976563 113.50144531 -150.53515625 112.76367188 C-150.94565851 110.80379606 -151.32565352 108.83759842 -151.703125 106.87109375 C-151.87730957 106.27514404 -152.05149414 105.67919434 -152.23095703 105.06518555 C-152.88432965 102.02906366 -152.90774058 99.08416281 -152.984375 95.98046875 C-153.00278442 95.31702454 -153.02119385 94.65358032 -153.04016113 93.97003174 C-153.09867429 91.85380575 -153.15152888 89.73749894 -153.203125 87.62109375 C-153.27149133 84.84490956 -153.34493619 82.06892762 -153.421875 79.29296875 C-153.45539063 77.99423828 -153.48890625 76.69550781 -153.5234375 75.35742188 C-153.67006716 72.51248762 -153.99989316 69.9206499 -154.546875 67.13671875 C-154.703125 63.87109375 -154.703125 63.87109375 -152.7578125 61.63671875 C-149.83882466 59.94952885 -146.91594666 58.29343028 -143.9296875 56.72851562 C-132.23880721 50.5679867 -127.23645287 44.46573763 -121.89257812 32.51391602 C-112.3006353 11.47537412 -95.68750594 -2.17952631 -74.703125 -11.12890625 C-50.05485074 -19.81249924 -20.92480693 -15.76382267 0 0 Z " fill="#FE692F" transform="translate(478.703125,269.12890625)"/>
<path d="M0 0 C1.47919922 -0.01836914 1.47919922 -0.01836914 2.98828125 -0.03710938 C21.41119544 -0.0735183 40.3239968 6.70873023 54.01171875 19.26171875 C55.23960923 20.52945963 56.44259543 21.82215128 57.61062622 23.14524841 C59.69690899 25.30726919 59.69690899 25.30726919 62.48214722 26.71351624 C65.82580285 28.58718287 68.19887135 30.31152854 70.75 33.1875 C72.3661405 38.95443237 72.2064017 44.54645294 72.0703125 50.49609375 C72.06755982 52.1894563 72.06867304 53.8828291 72.07345581 55.57618713 C72.07162796 59.11689977 72.03229755 62.65453232 71.96435547 66.19458008 C71.87935283 70.712328 71.87384022 75.22579298 71.89485359 79.74415493 C71.90465046 83.23885602 71.87911281 86.73260229 71.84246445 90.22709846 C71.82782807 91.89146515 71.8222815 93.5559394 71.82632828 95.22036552 C71.81916075 110.90708911 71.81916075 110.90708911 65.48890686 117.39857483 C52.83527085 130.41618289 50.13070276 153.24734989 50.27661133 170.37353516 C50.74889204 186.34960767 55.47616995 203.03624963 64.75 216.1875 C64.42 216.8475 64.09 217.5075 63.75 218.1875 C34.30611088 202.47727675 6.90908865 182.22116096 -13.91650391 155.87158203 C-14.84878949 154.69419171 -15.78641201 153.52101649 -16.72802734 152.35107422 C-41.8757917 121.03602663 -63.76562349 78.8795519 -67.25 38.1875 C-66.59705993 33.9105698 -64.1410809 31.48379698 -61.25 28.4375 C-60.75089111 27.90672852 -60.25178223 27.37595703 -59.73754883 26.82910156 C-43.16697436 9.39418225 -24.28920229 0.01563012 0 0 Z " fill="#FEB409" transform="translate(80.25,267.8125)"/>
<path d="M0 0 C0.79249146 -0.0087616 1.58498291 -0.01752319 2.40148926 -0.02655029 C5.01301325 -0.04850145 7.62283474 -0.0340079 10.234375 -0.01708984 C12.05371423 -0.02045924 13.87305127 -0.02531288 15.69238281 -0.03158569 C19.5021715 -0.03895118 23.31137337 -0.02826218 27.12109375 -0.00488281 C32.00065826 0.02360505 36.87884775 0.00719931 41.75836182 -0.02274513 C45.51426524 -0.04082702 49.26984353 -0.03505605 53.02575684 -0.02210617 C54.824668 -0.01877461 56.62360885 -0.02285047 58.42248535 -0.03450394 C60.9387003 -0.04722781 63.45269979 -0.02781685 65.96875 0 C67.08014343 -0.01518173 67.08014343 -0.01518173 68.21398926 -0.03067017 C72.09655206 0.04870929 73.85216615 0.5443891 76.95483398 2.95181274 C79.58958715 6.45067335 79.55767871 9.26655151 79.296875 13.45947266 C79.27431641 14.15234375 79.25175781 14.84521484 79.22851562 15.55908203 C79.17000161 17.25598839 79.0803298 18.95177127 78.984375 20.64697266 C79.64978806 20.6358696 80.31520111 20.62476654 81.0007782 20.61332703 C87.92738419 20.50269607 94.85373918 20.42728927 101.78100586 20.37231445 C104.3660705 20.34717264 106.95106407 20.3130545 109.53588867 20.26977539 C113.25196874 20.20911343 116.96710886 20.18075846 120.68359375 20.15869141 C122.41666023 20.11998177 122.41666023 20.11998177 124.18473816 20.08049011 C125.26548111 20.08011246 126.34622406 20.0797348 127.4597168 20.0793457 C128.40791794 20.06824265 129.35611908 20.05713959 130.33305359 20.04570007 C134.30557327 20.94659695 135.64340027 22.31869686 137.984375 25.64697266 C138.687676 29.11594416 138.61656289 32.50809476 138.55200195 36.03686523 C138.55309715 37.60340851 138.55309715 37.60340851 138.55421448 39.20159912 C138.55073494 42.64876492 138.51185412 46.09457456 138.47265625 49.54150391 C138.46332949 51.93331667 138.45621273 54.32513899 138.45121765 56.71696472 C138.43213739 63.00872218 138.38302652 69.29990146 138.32769775 75.59143066 C138.27652816 82.01285989 138.25370842 88.43438264 138.22851562 94.85595703 C138.17490981 107.45320874 138.09054625 120.05005993 137.984375 132.64697266 C137.27107025 132.64839767 136.5577655 132.64982269 135.82284546 132.65129089 C129.08441073 132.66915681 122.34658882 132.71087561 115.60846519 132.77906322 C112.1446513 132.8132833 108.68127606 132.83843523 105.21728516 132.8425293 C101.23039634 132.84764558 97.24443467 132.89280415 93.2578125 132.93994141 C92.02010101 132.93600876 90.78238953 132.93207611 89.50717163 132.92802429 C88.3464212 132.94766739 87.18567078 132.96731049 85.98974609 132.98754883 C84.46418594 132.99754158 84.46418594 132.99754158 82.9078064 133.00773621 C79.75233182 133.43523063 79.75233182 133.43523063 77.32287598 136.15270996 C73.04989805 140.01127277 68.03659704 139.30634684 62.56298828 139.21459961 C61.42094437 139.21532974 60.27890045 139.21605988 59.10224915 139.21681213 C55.33590837 139.21333501 51.57081165 139.17446457 47.8046875 139.13525391 C45.19010087 139.12592631 42.57550548 139.11880995 39.96090698 139.11381531 C33.78789021 139.0983 27.61531835 139.05730368 21.44249713 139.00706786 C14.41232502 138.95110167 7.3821312 138.92366974 0.35179162 138.89859068 C-14.10427566 138.8463851 -28.55986187 138.75472283 -43.015625 138.64697266 C-43.015625 130.06697266 -43.015625 121.48697266 -43.015625 112.64697266 C-41.03476395 112.64110641 -39.05390289 112.63524017 -37.01301575 112.62919617 C-18.36913383 112.57256674 0.27463176 112.49950638 18.91839123 112.41125774 C28.50393258 112.36628163 38.08943664 112.32687116 47.67504883 112.30053711 C56.02933388 112.27757173 64.38350106 112.24419008 72.73769265 112.1982711 C77.1616706 112.17431915 81.58553166 112.15560331 86.00957298 112.14935875 C90.17352095 112.14331679 94.33716978 112.12334929 98.50100708 112.09269714 C100.02920264 112.08390263 101.55743727 112.08019726 103.08565712 112.08196449 C105.17306668 112.08361623 107.25956323 112.06692824 109.34684753 112.04570007 C110.51475924 112.04109111 111.68267096 112.03648214 112.88597393 112.03173351 C116.32647208 111.60449088 118.22049045 110.70616563 120.984375 108.64697266 C122.58054243 105.4546378 122.49903614 102.11235769 121.984375 98.64697266 C120.11422406 96.21577643 118.70299155 95.00628093 115.984375 93.64697266 C113.89415182 93.54077483 111.80049853 93.50028987 109.70761108 93.48875427 C109.05661741 93.4838163 108.40562373 93.47887832 107.73490298 93.47379071 C105.54381166 93.45837809 103.35274973 93.45004496 101.16162109 93.44165039 C99.5948409 93.43207482 98.0280633 93.42206493 96.46128845 93.41165161 C92.19916272 93.38456169 87.93702587 93.3635743 83.67486143 93.34364963 C79.22386353 93.32181524 74.77290007 93.29441411 70.32192993 93.26759338 C61.88947354 93.21763198 53.45699807 93.17270597 45.0245043 93.12957102 C35.42606887 93.08022807 25.82766797 93.02529905 16.22926593 92.96989143 C-3.51899907 92.85601847 -23.26729755 92.74938918 -43.015625 92.64697266 C-43.015625 84.06697266 -43.015625 75.48697266 -43.015625 66.64697266 C-41.03476395 66.64110641 -39.05390289 66.63524017 -37.01301575 66.62919617 C-18.36913383 66.57256674 0.27463176 66.49950638 18.91839123 66.41125774 C28.50393258 66.36628163 38.08943664 66.32687116 47.67504883 66.30053711 C56.02933388 66.27757173 64.38350106 66.24419008 72.73769265 66.1982711 C77.1616706 66.17431915 81.58553166 66.15560331 86.00957298 66.14935875 C90.17352095 66.14331679 94.33716978 66.12334929 98.50100708 66.09269714 C100.02920264 66.08390263 101.55743727 66.08019726 103.08565712 66.08196449 C105.17306668 66.08361623 107.25956323 66.06692824 109.34684753 66.04570007 C110.51475924 66.04109111 111.68267096 66.03648214 112.88597393 66.03173351 C116.32647208 65.60449088 118.22049045 64.70616563 120.984375 62.64697266 C122.57689143 59.46193979 122.37567261 56.11373215 121.984375 52.64697266 C120.24184155 49.41083912 119.51251556 48.82301951 115.984375 47.64697266 C113.85389955 47.54339931 111.7203157 47.50052 109.58735657 47.48875427 C108.93550847 47.4838163 108.28366037 47.47887832 107.6120593 47.47379071 C105.42407401 47.45841154 103.23611808 47.45005398 101.0480957 47.44165039 C99.48116802 47.43207219 97.91424293 47.42206215 96.34732056 47.41165161 C92.08938607 47.38459016 87.83144049 47.3635873 83.57346749 47.34364963 C79.12514483 47.32179774 74.67685643 47.29440515 70.2285614 47.26759338 C61.80322142 47.21765572 53.37786244 47.17272087 44.95248526 47.12957102 C35.36128175 47.08020783 25.7701126 47.02528629 16.17894232 46.96989143 C-3.5525481 46.85605489 -23.28407134 46.74921948 -43.015625 46.64697266 C-43.09678493 43.58393688 -43.15619909 40.52306451 -43.203125 37.45947266 C-43.22826172 36.59515625 -43.25339844 35.73083984 -43.27929688 34.84033203 C-43.3356042 29.94159512 -43.24634767 26.61126867 -40.015625 22.64697266 C-36.92893238 20.4758521 -34.30691891 20.41040272 -30.59375 20.45166016 C-29.56894531 20.45810547 -28.54414063 20.46455078 -27.48828125 20.47119141 C-26.42480469 20.48794922 -25.36132812 20.50470703 -24.265625 20.52197266 C-22.64720703 20.53550781 -22.64720703 20.53550781 -20.99609375 20.54931641 C-18.33571222 20.57285961 -15.67578164 20.60574467 -13.015625 20.64697266 C-13.07363281 19.62216797 -13.13164062 18.59736328 -13.19140625 17.54150391 C-13.23832457 16.18087255 -13.28382252 14.8201917 -13.328125 13.45947266 C-13.37001953 12.7859375 -13.41191406 12.11240234 -13.45507812 11.41845703 C-13.5446939 7.74421007 -13.21273155 5.90872331 -10.98608398 2.95181274 C-7.28991276 0.08387764 -4.49380239 -0.06138574 0 0 Z " fill="#0065EC" transform="translate(223.015625,-0.64697265625)"/>
<path d="M0 0 C16.45263857 6.58105543 27.63700153 17.58916431 35.01171875 33.6171875 C35.75 35.875 35.75 35.875 35.75 38.875 C36.41 39.205 37.07 39.535 37.75 39.875 C38.96678543 46.14733262 38.88563928 52.47043313 38.99047852 58.84228516 C39.22386535 75.26655805 39.22386535 75.26655805 42.91015625 91.1953125 C43.76252493 93.91496325 43.91067264 96.04508837 43.75 98.875 C45.60625 99.431875 45.60625 99.431875 47.5 100 C70.56402886 107.82014728 87.45016838 124.5526201 98.5625 145.875 C102.36902933 153.77950987 105.39923547 162.17448729 106.75 170.875 C107.04197266 172.58623047 107.04197266 172.58623047 107.33984375 174.33203125 C106.75 177.875 106.75 177.875 105.27392578 179.36474609 C103.02049222 180.92313947 100.71904631 182.25234455 98.3125 183.5625 C97.4157959 184.07087402 96.5190918 184.57924805 95.59521484 185.10302734 C92.66738466 186.7352864 89.71529012 188.31191994 86.75 189.875 C85.78723145 190.38788574 84.82446289 190.90077148 83.83251953 191.42919922 C53.11705654 207.569572 21.13873253 215.6843366 -13.25 218.875 C-14.28120986 207.92838481 -14.98017996 196.98718094 -15.375 186 C-15.40395733 185.1974025 -15.43291466 184.39480499 -15.46274948 183.56788635 C-16.04985938 165.1309021 -16.47042635 148.66299522 -3.46472168 134.22940063 C2.91309385 127.81669936 10.01395855 122.15322051 17.51538086 117.11230469 C20.76335703 115.24929242 20.76335703 115.24929242 21.75 112.875 C22.00860135 108.82357881 22.05441554 107.33162331 19.75 103.875 C15.57339427 103.60981868 12.70659266 103.55613578 8.75 104.875 C8.255 106.36 8.255 106.36 7.75 107.875 C6.09997172 109.22886936 4.4325613 110.56178142 2.75 111.875 C2.09 112.865 1.43 113.855 0.75 114.875 C0.09 114.875 -0.57 114.875 -1.25 114.875 C-1.4975 115.44734375 -1.745 116.0196875 -2 116.609375 C-3.44316199 119.22510611 -5.13216222 121.02273456 -7.25 123.125 C-8.301875 124.18460938 -8.301875 124.18460938 -9.375 125.265625 C-11.25 126.875 -11.25 126.875 -13.25 126.875 C-16.55505913 92.94930394 -16.55505913 92.94930394 -9.0546875 83.2578125 C-5.11249907 79.11344121 -0.80159984 75.5239834 3.89233398 72.2590332 C5.87618605 70.99767629 5.87618605 70.99767629 6.75 68.875 C7.11275952 64.76417391 7.11275952 64.76417391 5.6875 61 C2.32120849 59.04537912 0.59996132 59.1298462 -3.25 59.875 C-5.87000223 62.05551799 -8.13563411 64.3866795 -10.4296875 66.90625 C-11.03039062 67.5559375 -11.63109375 68.205625 -12.25 68.875 C-12.58 68.875 -12.91 68.875 -13.25 68.875 C-13.2593457 67.56829346 -13.26869141 66.26158691 -13.27832031 64.9152832 C-13.31823838 60.06012066 -13.38400275 55.20559056 -13.45751953 50.35083008 C-13.48571852 48.25097792 -13.50693837 46.15101983 -13.52099609 44.05102539 C-13.54244014 41.02955941 -13.58909867 38.00936566 -13.640625 34.98828125 C-13.64185364 34.05164139 -13.64308228 33.11500153 -13.64434814 32.14997864 C-13.73915484 27.91638505 -13.88933437 25.47780646 -16.10058594 21.78198242 C-18.16320913 19.63371871 -18.16320913 19.63371871 -21.25 19.25 C-24.33679087 19.63371871 -24.33679087 19.63371871 -26.39941406 21.78198242 C-29.02863916 26.17639572 -28.85277084 29.95366276 -28.859375 34.98828125 C-28.87591125 35.95783249 -28.89244751 36.92738373 -28.90948486 37.92631531 C-28.95794745 41.01344143 -28.97933225 44.10007499 -29 47.1875 C-29.02816109 49.28452997 -29.05808871 51.381537 -29.08984375 53.47851562 C-29.16370622 58.61063654 -29.21329171 63.74248429 -29.25 68.875 C-30.37402862 67.91444935 -31.49764805 66.95341986 -32.62109375 65.9921875 C-33.24685303 65.45706543 -33.8726123 64.92194336 -34.51733398 64.37060547 C-35.79812907 63.26504669 -37.06055807 62.13812902 -38.3125 61 C-41.10996999 59.37566259 -43.07365485 59.47795686 -46.25 59.875 C-48.41278567 61.3405023 -48.41278567 61.3405023 -50.25 62.875 C-50.45540151 54.31660383 -50.54072372 46.18787791 -48.25 37.875 C-48.05535156 37.14152344 -47.86070312 36.40804687 -47.66015625 35.65234375 C-42.81266381 19.38886318 -32.03782498 6.88007868 -17.25 -1.125 C-16.19425781 -1.71087891 -16.19425781 -1.71087891 -15.1171875 -2.30859375 C-10.27197245 -4.42710828 -4.64478187 -1.66947676 0 0 Z " fill="#FEC042" transform="translate(287.25,293.125)"/>
<path d="M0 0 C16.63833841 13.55402058 16.63833841 13.55402058 21.296875 22.87109375 C21.63225455 36.11858582 18.46657344 51.36199843 14.296875 63.87109375 C13.51828125 63.93425781 12.7396875 63.99742187 11.9375 64.0625 C4.15303362 64.91448653 -2.4131532 66.72551707 -9.703125 69.49609375 C-24.12523846 74.80616417 -35.28593354 73.0551706 -49.59179688 68.44360352 C-54.3635289 67.14969607 -58.76857838 66.77591454 -63.6953125 67.01953125 C-64.81292969 67.05433594 -65.93054688 67.08914063 -67.08203125 67.125 C-69.40588876 67.20549115 -71.72905422 67.30953079 -74.05078125 67.4375 C-80.08368219 67.58328932 -83.70165198 67.54474882 -88.2109375 63.28515625 C-89.06002686 62.29829834 -89.06002686 62.29829834 -89.92626953 61.29150391 C-91.66199578 59.57497434 -91.66199578 59.57497434 -94.28588867 60.05322266 C-97.24765307 61.05533464 -98.71823203 62.38567197 -100.890625 64.62109375 C-101.56480469 65.2965625 -102.23898437 65.97203125 -102.93359375 66.66796875 C-104.83355554 68.76949712 -104.83355554 68.76949712 -105.53515625 71.3984375 C-107.189629 74.90105039 -109.88734725 76.00999029 -113.203125 77.68359375 C-128.30586082 85.82980087 -139.74699266 97.31112441 -148.703125 111.87109375 C-152.17898389 106.65730542 -152.9543137 101.98541221 -153.08203125 95.78515625 C-153.09902573 95.12454193 -153.1160202 94.46392761 -153.13352966 93.78329468 C-153.18623058 91.68765637 -153.22671291 89.59202955 -153.265625 87.49609375 C-153.30983566 85.41167001 -153.3567708 83.32737099 -153.4078064 81.24310303 C-153.45586406 79.2705637 -153.49778389 77.29787786 -153.53955078 75.32519531 C-153.67381565 72.49000227 -153.99765073 69.9180097 -154.54296875 67.14453125 C-154.703125 63.87109375 -154.703125 63.87109375 -152.7578125 61.63671875 C-149.83882466 59.94952885 -146.91594666 58.29343028 -143.9296875 56.72851562 C-132.23880721 50.5679867 -127.23645287 44.46573763 -121.89257812 32.51391602 C-112.3006353 11.47537412 -95.68750594 -2.17952631 -74.703125 -11.12890625 C-50.05485074 -19.81249924 -20.92480693 -15.76382267 0 0 Z " fill="#FE5426" transform="translate(478.703125,269.12890625)"/>
<path d="M0 0 C0.33 0 0.66 0 1 0 C0.85201762 28.7695148 0.85201762 28.7695148 -2.5625 40.0625 C-5.41095515 49.91328101 -5.56531129 59.63525979 -5.625 69.8125 C-5.63757843 70.59464874 -5.65015686 71.37679749 -5.66311646 72.18264771 C-5.89587244 89.92126339 -1.59623765 107.63908759 10.82421875 121.0234375 C23.32153456 132.37647484 35.63843802 136.42337607 52 139 C52 149.89 52 160.78 52 172 C18.73487949 172.5905051 -11.93034467 167.04353096 -43 155 C-43.83660156 154.68305176 -44.67320312 154.36610352 -45.53515625 154.03955078 C-54.22068929 150.6779149 -61.17648053 147.75077492 -65.65234375 139.109375 C-66.31943359 137.57023437 -66.31943359 137.57023437 -67 136 C-67.53753906 134.82953125 -68.07507813 133.6590625 -68.62890625 132.453125 C-78.11778421 110.94725886 -79.63994603 85.73618624 -71.08837891 63.64501953 C-66.54028179 52.55613647 -60.92704528 42.99826762 -53 34 C-52.28199219 33.18273437 -51.56398437 32.36546875 -50.82421875 31.5234375 C-38.65979853 18.58067229 -20.60791916 8.14193353 -3 5 C-2.01 5 -1.02 5 0 5 C0 3.35 0 1.7 0 0 Z " fill="#509E48" transform="translate(206,340)"/>
<path d="M0 0 C19.79433009 9.31497886 19.79433009 9.31497886 26.6875 13.8125 C27.47439209 14.31821533 28.26128418 14.82393066 29.07202148 15.3449707 C39.34040841 22.04564314 48.74670561 29.65240238 57.765625 37.94921875 C59.85166886 39.86385691 61.97682046 41.71822958 64.125 43.5625 C70.99569648 49.57952277 77.00815 56.03168468 82.71875 63.16015625 C84.19592633 64.99903843 85.6947954 66.82078823 87.21875 68.62109375 C97.92784116 81.30985845 106.30595286 95.33039165 114 110 C114.3801123 110.71542969 114.76022461 111.43085938 115.15185547 112.16796875 C132.56970052 145.35633122 140.42235482 182.63992779 140.26074219 219.91650391 C140.24983736 222.91979337 140.26080032 225.9225077 140.2734375 228.92578125 C140.2721188 230.84375131 140.26956244 232.76172102 140.265625 234.6796875 C140.26967346 235.57332001 140.27372192 236.46695251 140.27789307 237.38766479 C140.26843658 238.6263884 140.26843658 238.6263884 140.25878906 239.89013672 C140.25719788 240.61385468 140.25560669 241.33757263 140.25396729 242.08322144 C140 244 140 244 138 247 C137.50371094 246.28714844 137.00742187 245.57429687 136.49609375 244.83984375 C123.82962988 226.98181215 108.41995638 218.42543868 88 211 C88 182.62 88 154.24 88 125 C90.64 124.01 93.28 123.02 96 122 C98.26394995 118.50974382 98.52282384 115.09545345 98 111 C95.76793569 108.15219381 94.45007001 107.15002334 91 106 C88.12561452 105.84586124 85.27101014 105.74252715 82.39453125 105.68359375 C81.13572395 105.6524221 81.13572395 105.6524221 79.85148621 105.62062073 C77.17190706 105.55525982 74.49223031 105.49630286 71.8125 105.4375 C69.99543263 105.39430198 68.17837512 105.35068727 66.36132812 105.30664062 C61.90765201 105.1995922 57.45387774 105.09828681 53 105 C52.94956543 104.24219238 52.89913086 103.48438477 52.84716797 102.70361328 C52.77127441 101.71087402 52.69538086 100.71813477 52.6171875 99.6953125 C52.51059814 98.21828857 52.51059814 98.21828857 52.40185547 96.71142578 C51.87634412 93.16566087 50.67248817 91.35807779 48 89 C45.21228069 88.07076023 43.41765752 87.85132662 40.52856445 87.79467773 C39.61530396 87.77449585 38.70204346 87.75431396 37.7611084 87.73352051 C36.80482544 87.71704468 35.84854248 87.70056885 34.86328125 87.68359375 C33.98168335 87.66494263 33.10008545 87.6462915 32.19177246 87.6270752 C28.89878352 87.55878056 25.60562974 87.49862988 22.3125 87.4375 C11.2678125 87.2209375 11.2678125 87.2209375 0 87 C0 58.29 0 29.58 0 0 Z " fill="#65BDFB" transform="translate(361,45)"/>
<path d="M0 0 C0 45.21 0 90.42 0 137 C-4.95 137 -9.9 137 -15 137 C-17.8154874 133.39420034 -19.23778761 131.01949448 -21 127 C-28.36983277 115.99960065 -41.23768383 109.69044118 -53.8125 106.6875 C-70.72580745 103.89572008 -84.92604701 107.39777108 -99 117 C-109.58554513 125.1011825 -118.09052367 138.65276048 -120 152 C-120.09741826 154.22925442 -120.14379844 156.45680155 -120.18701172 158.68774414 C-120.44528113 168.9374361 -121.31307028 176.24715003 -128.77734375 183.81640625 C-131.42921743 186.3191389 -134.18443014 188.68245563 -137 191 C-137.66 190.67 -138.32 190.34 -139 190 C-132.90684751 152.0880468 -120.87230704 114.36655151 -98 83 C-97.55011719 82.37786621 -97.10023437 81.75573242 -96.63671875 81.11474609 C-90.50154224 72.65864364 -84.12638877 64.65120034 -77 57 C-75.80759878 55.62924817 -74.61986117 54.25442137 -73.4375 52.875 C-69.81795012 48.71797635 -65.93262867 44.85858336 -62 41 C-60.99879154 40.00120992 -59.99858857 39.00140944 -59 38 C-58.01 37.01 -58.01 37.01 -57 36 C-57.825 35.29875 -58.65 34.5975 -59.5 33.875 C-62 31 -62 31 -62.44140625 28.15625 C-61.86306253 24.02083653 -60.37829597 22.54388244 -57.4375 19.625 C-56.59058594 18.75101563 -55.74367188 17.87703125 -54.87109375 16.9765625 C-51.26732578 14.49560115 -49.29304817 14.3938057 -45 15 C-42.43978118 16.68343155 -41.01977302 18.63538768 -39 21 C-34.50904621 19.43159438 -30.71420031 17.01000777 -26.75 14.4375 C-20.81698383 10.65313752 -14.78897133 7.15470822 -8.5625 3.875 C-7.45310059 3.28996704 -7.45310059 3.28996704 -6.32128906 2.69311523 C-1.146499 0 -1.146499 0 0 0 Z " fill="#65BDFB" transform="translate(151,45)"/>
<path d="M0 0 C2.37385926 0.91651511 4.74422047 1.84075726 7.11328125 2.76953125 C7.77686646 3.02480591 8.44045166 3.28008057 9.12414551 3.54309082 C29.27452599 11.48336648 46.08191693 29.53094541 55 49 C57.9099276 56.31900278 60.89597388 64.1702975 62 72 C62.19464844 73.14082031 62.38929688 74.28164063 62.58984375 75.45703125 C62 79 62 79 60.52392578 80.48974609 C58.27049222 82.04813947 55.96904631 83.37734455 53.5625 84.6875 C52.6657959 85.19587402 51.7690918 85.70424805 50.84521484 86.22802734 C47.91738466 87.8602864 44.96529012 89.43691994 42 91 C41.03723145 91.51288574 40.07446289 92.02577148 39.08251953 92.55419922 C8.54112313 108.60310343 -23.69659186 117.20490749 -58 120 C-58 109.11 -58 98.22 -58 87 C-52.72 86.01 -47.44 85.02 -42 84 C-26.53204119 78.84401373 -15.27039199 69.60269383 -7.51171875 55.24609375 C-6.19178615 52.50888838 -5.02325857 49.86367771 -4 47 C-3.74323486 46.29512451 -3.48646973 45.59024902 -3.22192383 44.86401367 C-0.31705216 35.81900321 -0.44132785 26.71507937 -0.3125 17.3125 C-0.27925889 15.62822979 -0.24476319 13.94398384 -0.20898438 12.25976562 C-0.12486655 8.17331287 -0.05769677 4.08690767 0 0 Z " fill="#509D48" transform="translate(332,392)"/>
<path d="M0 0 C6.3351854 5.12206479 13.06033693 12.33553505 14.83203125 20.4453125 C13.89100052 20.44673752 12.94996979 20.44816254 11.98042297 20.44963074 C3.10790947 20.4663072 -5.76414577 20.50910032 -14.63641644 20.57740307 C-19.19770051 20.61168016 -23.7586494 20.63678414 -28.32006836 20.64086914 C-32.72295964 20.6451506 -37.12509472 20.67360004 -41.52775002 20.71874428 C-43.20659797 20.73172426 -44.88553639 20.73602516 -46.56442833 20.73146629 C-48.9183737 20.72656348 -51.27010615 20.75263374 -53.6237793 20.78588867 C-54.31645905 20.77726303 -55.00913879 20.76863739 -55.72280884 20.75975037 C-59.50253391 20.84914859 -61.10598365 21.3964987 -64.11213684 23.76387024 C-66.7779059 27.24085967 -66.7138218 29.15646708 -66.16796875 33.4453125 C-64.9802902 36.82562839 -64.2697165 37.37748067 -61.16796875 39.4453125 C-60.8072052 42.30532837 -60.8072052 42.30532837 -60.82739258 46.00634766 C-60.82673546 47.01628029 -60.82673546 47.01628029 -60.82606506 48.0466156 C-60.82815819 50.27616188 -60.85151255 52.50495981 -60.875 54.734375 C-60.88059412 56.27850941 -60.88486509 57.82264914 -60.88786316 59.36679077 C-60.89932649 63.43414977 -60.92880613 67.50118821 -60.9619751 71.56842041 C-60.99264413 75.71744449 -61.00636169 79.86652028 -61.02148438 84.015625 C-61.0536747 92.1590014 -61.10488867 100.30211709 -61.16796875 108.4453125 C-61.96895996 108.77362061 -62.76995117 109.10192871 -63.59521484 109.44018555 C-64.65820801 109.87886963 -65.72120117 110.31755371 -66.81640625 110.76953125 C-67.86489746 111.20096436 -68.91338867 111.63239746 -69.99365234 112.0769043 C-83.24195615 117.78808279 -93.2118229 126.1566794 -103.16796875 136.4453125 C-104.8332444 138.11336902 -106.49975513 139.78019422 -108.16796875 141.4453125 C-110.27762336 130.29223194 -110.44638413 119.39692773 -110.3737793 108.0847168 C-110.35539451 105.12084411 -110.35327122 102.15728351 -110.35351562 99.19335938 C-110.34860295 97.28124733 -110.34277572 95.36913737 -110.3359375 93.45703125 C-110.33482468 92.58495529 -110.33371185 91.71287933 -110.33256531 90.81437683 C-110.21822743 75.84892924 -110.21822743 75.84892924 -107.49609375 72.2109375 C-106.8103125 71.71078125 -106.12453125 71.210625 -105.41796875 70.6953125 C-104.33515625 69.85033203 -104.33515625 69.85033203 -103.23046875 68.98828125 C-102.54984375 68.47910156 -101.86921875 67.96992188 -101.16796875 67.4453125 C-96.46838174 63.27976947 -92.81833023 58.56713693 -91.81738281 52.22338867 C-91.69567313 49.89707401 -91.66558818 47.58720112 -91.66796875 45.2578125 C-91.23276355 29.97974167 -86.19993563 15.47727938 -75.16796875 4.4453125 C-52.68812273 -14.47437691 -24.41633952 -17.50937501 0 0 Z " fill="#509E49" transform="translate(121.16796875,161.5546875)"/>
<path d="M0 0 C0.8621814 -0.00571014 1.72436279 -0.01142029 2.6126709 -0.01730347 C4.03479134 -0.01898026 4.03479134 -0.01898026 5.48564148 -0.02069092 C6.48251984 -0.02565582 7.47939819 -0.03062073 8.50648499 -0.03573608 C11.81554344 -0.05038166 15.12455394 -0.05716388 18.43363953 -0.06268311 C20.7280884 -0.06843281 23.02253725 -0.07419057 25.31698608 -0.07995605 C30.13313522 -0.09047302 34.94926763 -0.09631106 39.76542664 -0.09979248 C45.9394572 -0.10527708 52.1132672 -0.12930162 58.28722858 -0.15776443 C63.02869311 -0.17638055 67.77010442 -0.18159588 72.5116024 -0.18312836 C74.78780002 -0.18615799 77.06399663 -0.19419691 79.34015846 -0.20731354 C82.52424045 -0.22435143 85.70778251 -0.22249905 88.89189148 -0.21600342 C89.83389908 -0.2252182 90.77590668 -0.23443298 91.74645996 -0.243927 C96.62778032 -0.21270308 99.9176434 -0.03470027 103.88285828 3.14044189 C106.19039727 5.48301944 106.8308198 6.64364789 107.17582703 9.93731689 C107.14102234 10.91184814 107.10621765 11.88637939 107.07035828 12.89044189 C107.02975281 14.36770752 107.02975281 14.36770752 106.98832703 15.87481689 C106.95352234 16.62247314 106.91871765 17.37012939 106.88285828 18.14044189 C108.00257019 18.12473145 109.1222821 18.109021 110.27592468 18.09283447 C114.44674939 18.03836295 118.61754289 18.00402937 122.78862 17.97564697 C124.59075719 17.9605995 126.39285801 17.9401566 128.19487 17.91412354 C130.79147848 17.87756168 133.38760102 17.86067508 135.98442078 17.84747314 C137.18477463 17.82424736 137.18477463 17.82424736 138.40937805 17.80055237 C143.30214734 17.79909424 146.65986999 18.39642261 150.88285828 21.14044189 C153.39652715 24.9109452 153.02091952 26.65195779 152.42973328 30.98028564 C151.66867815 33.9864534 150.39167756 35.36951063 147.88285828 37.14044189 C144.24410662 38.35335911 140.90351087 38.29182918 137.11482239 38.29434204 C136.31541068 38.29872429 135.51599897 38.30310655 134.69236267 38.3076216 C132.00471951 38.3210119 129.31710915 38.32718892 126.62944031 38.33331299 C124.70609895 38.3412136 122.78275908 38.34948253 120.85942078 38.35809326 C114.53651851 38.38431217 108.21360962 38.39961809 101.89067078 38.41387939 C99.71552908 38.41923862 97.54038743 38.42461613 95.36524582 38.43001175 C86.32011807 38.45163787 77.27499211 38.4703763 68.22984505 38.48163414 C55.25717847 38.49788569 42.28481081 38.53109589 29.31225693 38.58803499 C20.19542084 38.62669031 11.07866487 38.64626145 1.96174896 38.6515547 C-3.48623193 38.65521343 -8.93389398 38.66729057 -14.38178635 38.69965744 C-19.50527242 38.72966138 -24.62824543 38.73607732 -29.75180054 38.72427368 C-31.63318923 38.72405232 -33.51460121 38.7324088 -35.39590836 38.74992752 C-37.96294043 38.77253268 -40.52809829 38.76436563 -43.09513855 38.7484436 C-43.84115385 38.76232569 -44.58716915 38.77620778 -45.35579097 38.79051054 C-49.30135341 38.73013243 -50.96032895 38.26793929 -54.06334114 35.74501991 C-56.65922381 32.45298709 -57.12623673 30.37901682 -57.39839172 26.29669189 C-57.11714172 24.14044189 -57.11714172 24.14044189 -54.74214172 21.14044189 C-53.87589172 20.48044189 -53.00964172 19.82044189 -52.11714172 19.14044189 C-51.78714172 18.81044189 -51.45714172 18.48044189 -51.11714172 18.14044189 C-48.16008852 18.05175891 -45.22649116 18.02523894 -42.26948547 18.04278564 C-40.9398452 18.04490807 -40.9398452 18.04490807 -39.58334351 18.04707336 C-36.74040918 18.05268974 -33.89755241 18.06524498 -31.05464172 18.07794189 C-29.13211682 18.08295479 -27.20959068 18.08751806 -25.2870636 18.09161377 C-20.56372623 18.10266449 -15.84044714 18.11994007 -11.11714172 18.14044189 C-11.14469543 17.38843506 -11.17224915 16.63642822 -11.20063782 15.8616333 C-11.22206848 14.87340576 -11.24349915 13.88517822 -11.26557922 12.86700439 C-11.29313293 11.88812256 -11.32068665 10.90924072 -11.34907532 9.9006958 C-10.98478694 5.56528062 -9.28638343 4.00785106 -6.11714172 1.14044189 C-3.82778679 -0.00423557 -2.54486551 0.0100771 0 0 Z " fill="#FE7D43" transform="translate(307.1171417236328,131.85955810546875)"/>
<path d="M0 0 C3.3871849 0.84679623 4.80231661 2.10625689 6.94564819 4.82330322 C8.99552762 8.5692029 8.72509714 12.56362426 8.70703125 16.7421875 C8.72215256 17.68812775 8.73727386 18.63406799 8.75285339 19.6086731 C8.79566046 22.61435921 8.80456172 25.61903968 8.8125 28.625 C8.83564971 30.66929744 8.86101603 32.71357106 8.88867188 34.7578125 C8.95145538 39.75529697 8.98384522 44.75215607 9 49.75 C9.60545654 49.10973877 10.21091309 48.46947754 10.8347168 47.80981445 C11.63562744 46.9818335 12.43653809 46.15385254 13.26171875 45.30078125 C14.44834106 44.0619519 14.44834106 44.0619519 15.65893555 42.7980957 C18 40.75 18 40.75 21.8125 39.9375 C25.50502204 40.87873111 26.9048961 41.56544207 29 44.75 C29.6875 47.5 29.6875 47.5 29 50.75 C26.27620317 54.91188537 22.65012541 58.26573819 18.78125 61.34814453 C12.76951008 66.35605006 8.41895138 70.61516102 7.60978699 78.66825867 C7.44354594 82.81295543 7.5307763 86.91914222 7.6875 91.0625 C7.70453306 92.78575865 7.71564074 94.50908648 7.72070312 96.23242188 C7.74564926 100.40888664 7.85019512 104.57622523 8 108.75 C9.28867602 107.64189679 10.57460818 106.53060204 11.859375 105.41796875 C12.57577148 104.79946045 13.29216797 104.18095215 14.03027344 103.54370117 C16.31057564 101.46717908 18.14123883 99.20622012 20 96.75 C22.125 94.4375 22.125 94.4375 24 92.75 C24.66 92.75 25.32 92.75 26 92.75 C26.495 91.265 26.495 91.265 27 89.75 C30.25638628 86.33476561 32.39012537 84.41763236 37.1875 84.1875 C41 84.75 41 84.75 43 86.375 C44.37832203 89.64851483 44.68127187 91.20738625 44 94.75 C40.92101562 99.59808637 36.86703007 102.95558489 32.05667114 106.01251221 C22.34512606 112.28908951 13.23218063 119.67759721 9 130.75 C4.21859818 153.24875402 6.65699286 177.9635216 8 200.75 C2.72 200.75 -2.56 200.75 -8 200.75 C-8.13873645 177.39603148 -7.74586119 154.09188459 -7 130.75 C-7.55179932 130.52417236 -8.10359863 130.29834473 -8.67211914 130.06567383 C-11.70370084 128.35228171 -13.79774859 126.17571825 -16.24609375 123.69921875 C-16.73908463 123.20339798 -17.2320755 122.70757721 -17.74000549 122.19673157 C-19.31061396 120.61497269 -20.87413286 119.02641315 -22.4375 117.4375 C-23.48456052 116.38039807 -24.53208213 115.32375264 -25.58007812 114.26757812 C-27.51778796 112.31359322 -29.45218063 110.35653087 -31.38452148 108.3972168 C-33.91304396 105.83801124 -36.45389977 103.29170472 -39 100.75 C-41.82840016 97.90763244 -43.84373984 95.72662598 -44.5 91.625 C-43.92282639 88.30625177 -43.63244154 86.88885875 -41 84.75 C-37.5711787 83.96798812 -36.25665358 83.77578739 -33 84.75 C-29.83041758 86.89784528 -27.19098185 89.4734808 -24.515625 92.20361328 C-22.77846282 93.97603358 -21.01529865 95.72045463 -19.25 97.46484375 C-15.81162813 100.87210695 -12.40072157 104.30517685 -9 107.75 C-5.9264966 85.45215713 -5.9264966 85.45215713 -13.1953125 65.375 C-17.17400678 61.30493775 -21.60378684 57.94789652 -26.13012695 54.51733398 C-28 52.75 -28 52.75 -29.1953125 48.953125 C-29 45.75 -29 45.75 -27.4375 42.8125 C-25 40.75 -25 40.75 -22.25 40 C-16.55952082 41.3131875 -13.02494541 45.72505459 -9 49.75 C-8.99589111 48.47882324 -8.99178223 47.20764648 -8.98754883 45.89794922 C-8.96572567 41.16756009 -8.91140254 36.43799898 -8.84741211 31.70800781 C-8.82425993 29.66349238 -8.80984294 27.61885814 -8.80444336 25.57421875 C-8.79513356 22.62945769 -8.75409842 19.68655791 -8.70703125 16.7421875 C-8.7109639 15.8325827 -8.71489655 14.92297791 -8.71894836 13.98580933 C-8.62007157 9.65464599 -8.38122874 6.64315177 -5.64331055 3.17236328 C-3 0.75 -3 0.75 0 0 Z " fill="#FD9602" transform="translate(266,311.25)"/>
<path d="M0 0 C11.55 0 23.1 0 35 0 C35 6.93 35 13.86 35 21 C37.31 21.33 39.62 21.66 42 22 C45.41580663 24.52792693 46.79547326 25.95269324 47.61523438 30.15039062 C47.60814453 31.30732422 47.60105469 32.46425781 47.59375 33.65625 C47.59117187 34.92597656 47.58859375 36.19570312 47.5859375 37.50390625 C47.54339844 39.48197266 47.54339844 39.48197266 47.5 41.5 C47.50386719 43.47806641 47.50386719 43.47806641 47.5078125 45.49609375 C47.39746242 56.3655771 47.39746242 56.3655771 44 61 C40.70008006 63.30994395 39.34890362 63 35 63 C35 71.58 35 80.16 35 89 C37.97 89.495 37.97 89.495 41 90 C45.57627119 93.15254237 45.57627119 93.15254237 47 96 C47.25737715 100.08572909 47.27099847 104.17316487 47.29516602 108.26635742 C47.31235006 110.29480029 47.35623375 112.32159994 47.40039062 114.34960938 C47.40876953 115.63287109 47.41714844 116.91613281 47.42578125 118.23828125 C47.44036377 119.41430908 47.45494629 120.59033691 47.4699707 121.80200195 C46.90356394 125.6562161 45.74457589 127.28209155 43 130 C40 131 40 131 36.453125 129.41796875 C35.04694175 128.68425003 33.64605986 127.94030235 32.25 127.1875 C30.86253551 126.44587952 29.47192288 125.7101167 28.078125 124.98046875 C27.46356445 124.64942139 26.84900391 124.31837402 26.21582031 123.97729492 C17.23629819 120.01684681 10.36718636 120.60983449 0 120 C0 80.4 0 40.8 0 0 Z " fill="#C4D2DC" transform="translate(261,170)"/>
<path d="M0 0 C0.67534515 -0.00367669 1.35069029 -0.00735338 2.04650044 -0.01114148 C4.32033488 -0.02219667 6.59412364 -0.02602526 8.86798096 -0.02983093 C10.49398952 -0.03609423 12.11999665 -0.04274091 13.7460022 -0.04974365 C18.17176033 -0.06716645 22.59750765 -0.07770902 27.02329159 -0.08594918 C29.78759639 -0.09109693 32.55189783 -0.09717278 35.31620026 -0.10346031 C43.96276218 -0.12251649 52.60931553 -0.13674637 61.25589442 -0.14507228 C71.2410439 -0.15484544 81.22597175 -0.1811652 91.21104312 -0.22157317 C98.92576498 -0.25172325 106.64042327 -0.26654012 114.35520291 -0.26985329 C118.96426546 -0.27220517 123.57309135 -0.28118325 128.18209076 -0.30631447 C132.51923095 -0.3295807 136.85597843 -0.33383435 141.19316483 -0.32355309 C142.78386617 -0.32305725 144.37458675 -0.32939183 145.96522903 -0.34310913 C148.13988722 -0.36081138 150.3131335 -0.35373183 152.48779297 -0.34057617 C154.311812 -0.3441587 154.311812 -0.3441587 156.1726799 -0.34781361 C160.17575131 0.2480809 162.35770737 1.64100544 165.49786377 4.14717102 C167.09995237 7.35134823 166.99071592 10.67056534 166.49786377 14.14717102 C164.37338107 17.59029816 163.34933735 18.86334649 159.49786377 20.14717102 C157.27723791 20.24775383 155.05366907 20.28656996 152.83078003 20.29434204 C152.14979134 20.29801873 151.46880265 20.30169542 150.76717794 20.30548352 C148.48029608 20.31651594 146.19345966 20.3203634 143.90655518 20.32417297 C142.26892452 20.33043784 140.63129528 20.33708466 138.9936676 20.34408569 C134.54117714 20.3614903 130.0886974 20.37204548 125.63618135 20.38029122 C122.85529551 20.3854414 120.074413 20.39151705 117.29352951 20.39780235 C108.59518127 20.41685096 99.89684152 20.4310841 91.19847643 20.43941432 C81.15276717 20.44919351 71.10727784 20.47553212 61.0616461 20.51591522 C53.29936173 20.5460505 45.5371405 20.56088064 37.77479875 20.56419533 C33.13727905 20.56654831 28.49999442 20.57554112 23.86253738 20.60065651 C19.50076439 20.62389781 15.13938191 20.62818649 10.7775631 20.61789513 C9.1767656 20.61739873 7.57594913 20.62374973 5.97521019 20.63745117 C3.78930851 20.6551146 1.6048169 20.6480931 -0.58108521 20.63491821 C-1.80409521 20.63730657 -3.02710522 20.63969492 -4.28717613 20.64215565 C-8.11901828 20.05219406 -9.76514218 18.83865182 -12.50213623 16.14717102 C-14.11060805 12.93022738 -14.11522772 9.6257988 -13.50213623 6.14717102 C-9.19786075 0.82346188 -6.63775873 0.0233563 0 0 Z " fill="#00429C" transform="translate(179.50213623046875,91.85282897949219)"/>
<path d="M0 0 C1.0202014 -0.00445668 1.0202014 -0.00445668 2.06101292 -0.0090034 C4.35100558 -0.0177083 6.64094607 -0.01920015 8.93095398 -0.02069092 C10.56843681 -0.02531785 12.20591856 -0.03034234 13.84339905 -0.03573608 C18.30008536 -0.04887464 22.75675659 -0.05530794 27.21345925 -0.05974674 C29.99651751 -0.06267528 32.77957162 -0.06677968 35.56262779 -0.07125092 C44.26632141 -0.08493003 52.97000559 -0.09459451 61.67370921 -0.09845281 C71.72787851 -0.10293394 81.78191188 -0.12048267 91.83603984 -0.1494534 C99.60255123 -0.1710571 107.36902434 -0.18115639 115.13556546 -0.18249393 C119.77640737 -0.18354295 124.41712157 -0.18947131 129.0579319 -0.20731354 C133.42374864 -0.22377144 137.78934139 -0.22596087 142.15517807 -0.21717453 C143.75758018 -0.21640291 145.35999421 -0.22076327 146.9623661 -0.23063278 C149.15030863 -0.24331855 151.3374538 -0.23749451 153.52539062 -0.22705078 C155.36185386 -0.22925062 155.36185386 -0.22925062 157.23541737 -0.2314949 C160.78266083 0.17852731 162.62631119 0.99383245 165.45317078 3.14044189 C167.89922782 6.80952747 168.2926348 9.87662959 167.45317078 14.14044189 C165.27742662 16.83149388 163.54251221 18.59577118 160.45317078 20.14044189 C158.28768521 20.24344417 156.11895498 20.27998465 153.95103455 20.28761292 C153.2756894 20.2912896 152.60034425 20.29496629 151.9045341 20.29875439 C149.63069967 20.30980958 147.3569109 20.31363817 145.08305359 20.31744385 C143.45704502 20.32370714 141.8310379 20.33035382 140.20503235 20.33735657 C135.77927422 20.35477936 131.3535269 20.36532194 126.92774296 20.3735621 C124.16343815 20.37870984 121.39913672 20.3847857 118.63483429 20.39107323 C109.98827237 20.4101294 101.34171901 20.42435928 92.69514012 20.4326852 C82.70999064 20.44245836 72.7250628 20.46877811 62.73999143 20.50918609 C55.02526957 20.53933616 47.31061127 20.55415304 39.59583163 20.55746621 C34.98676908 20.55981808 30.3779432 20.56879616 25.76894379 20.59392738 C21.4318036 20.61719362 17.09505612 20.62144726 12.75786972 20.611166 C11.16716837 20.61067016 9.57644779 20.61700475 7.98580551 20.63072205 C5.81114732 20.64842429 3.63790105 20.64134474 1.46324158 20.62818909 C0.24722889 20.63057744 -0.9687838 20.63296579 -2.22164536 20.63542652 C-6.22471677 20.03953201 -8.40667282 18.64660747 -11.54682922 16.14044189 C-13.14769549 12.93870936 -13.04600012 9.61467131 -12.54682922 6.14044189 C-8.90768757 0.43911996 -6.52702921 0.01587317 0 0 Z " fill="#00429C" transform="translate(178.5468292236328,45.85955810546875)"/>
<path d="M0 0 C4.15269662 2.20235362 6.915462 4.04243665 8.9140625 8.37890625 C9.78428614 11.79581376 10.20697942 15.13431843 10.6484375 18.6328125 C10.82012451 19.82422852 10.99181152 21.01564453 11.16870117 22.24316406 C12.65748846 33.36630345 12.95780201 44.33438998 12.90917969 55.54931641 C12.89827486 58.55260587 12.90923782 61.5553202 12.921875 64.55859375 C12.9205563 66.47656381 12.91799994 68.39453352 12.9140625 70.3125 C12.91811096 71.20613251 12.92215942 72.09976501 12.92633057 73.02047729 C12.92002625 73.84629303 12.91372192 74.67210876 12.90722656 75.52294922 C12.90563538 76.24666718 12.90404419 76.97038513 12.90240479 77.71603394 C12.6484375 79.6328125 12.6484375 79.6328125 10.6484375 82.6328125 C10.15214844 81.91996094 9.65585937 81.20710938 9.14453125 80.47265625 C-3.52193262 62.61462465 -18.93160612 54.05825118 -39.3515625 46.6328125 C-39.3515625 30.1328125 -39.3515625 13.6328125 -39.3515625 -3.3671875 C-26.07512443 -7.79266686 -12.67980825 -5.17241595 0 0 Z " fill="#509D49" transform="translate(488.3515625,209.3671875)"/>
<path d="M0 0 C5.81625 -0.061875 11.6325 -0.12375 17.625 -0.1875 C19.4498291 -0.21481201 21.2746582 -0.24212402 23.15478516 -0.27026367 C24.61620422 -0.27903313 26.07763067 -0.28667598 27.5390625 -0.29296875 C28.65897583 -0.3159906 28.65897583 -0.3159906 29.80151367 -0.33947754 C35.97504462 -0.34254285 39.9800666 1.21494258 44.6875 5.375 C47.79295382 9.30132218 48.30492479 14.05435274 49.12890625 18.87890625 C50.28656277 23.02674285 52.11366032 25.83097215 55.8137207 28.12402344 C58.39683326 29.15899919 60.36172818 29.23953662 63.140625 29.23828125 C64.12933594 29.25439453 65.11804688 29.27050781 66.13671875 29.28710938 C68.19655267 29.30390852 70.25651428 29.30929454 72.31640625 29.30273438 C79.06761742 29.43845911 83.8505837 30.44297331 89 35 C91.74245842 38.25801324 92.91408672 41.30042041 93.4375 45.5625 C93 49 93 49 90 55 C77.79 55 65.58 55 53 55 C52.67 51.37 52.34 47.74 52 44 C49.8526618 40.42110299 48.9448368 39.3149456 45 38 C43.51229395 37.88624128 42.02032676 37.82392798 40.52856445 37.79467773 C39.62785721 37.77473251 38.72714996 37.75478729 37.79914856 37.73423767 C36.83031235 37.71752518 35.86147614 37.70081268 34.86328125 37.68359375 C33.37141548 37.6524221 33.37141548 37.6524221 31.84941101 37.62062073 C28.67051133 37.55520588 25.49152866 37.4962776 22.3125 37.4375 C20.15819452 37.39430712 18.00389746 37.35069258 15.84960938 37.30664062 C10.56649009 37.19873877 5.28330833 37.09960509 0 37 C0 24.79 0 12.58 0 0 Z " fill="#92CFFC" transform="translate(361,95)"/>
<path d="M0 0 C0 19.8 0 39.6 0 60 C-9.260625 60.103125 -18.52125 60.20625 -28.0625 60.3125 C-30.97457275 60.35802002 -33.88664551 60.40354004 -36.88696289 60.45043945 C-39.2071823 60.46504891 -41.52741457 60.4777885 -43.84765625 60.48828125 C-45.64003723 60.526651 -45.64003723 60.526651 -47.46862793 60.5657959 C-54.70000156 60.56957444 -58.67259476 60.03466513 -64 55 C-67.06939528 50.5444262 -67.95175722 46.28754014 -67 41 C-64.25268663 35.70887796 -60.71874267 31.90624756 -55 30 C-53.37092008 29.8865597 -51.73815921 29.82210739 -50.10546875 29.7890625 C-49.14962891 29.76070312 -48.19378906 29.73234375 -47.20898438 29.703125 C-45.20656019 29.65134933 -43.20392954 29.60698825 -41.20117188 29.5703125 C-34.82830794 29.36487431 -29.93346863 28.93346863 -25.20703125 24.20703125 C-23.67345227 21.40291435 -23.23082646 18.8328797 -22.6875 15.6875 C-21.43310691 9.81165871 -19.7581897 5.78095758 -15 2 C-11 0 -11 0 0 0 Z " fill="#92CFFC" transform="translate(151,78)"/>
<path d="M0 0 C26.73 0 53.46 0 81 0 C81 8.58 81 17.16 81 26 C54.27 26 27.54 26 0 26 C0 17.42 0 8.84 0 0 Z " fill="#0065EC" transform="translate(180,251)"/>
<path d="M0 0 C26.73 0 53.46 0 81 0 C81 8.58 81 17.16 81 26 C54.27 26 27.54 26 0 26 C0 17.42 0 8.84 0 0 Z " fill="#0065EC" transform="translate(180,205)"/>
<path d="M0 0 C1.82988968 -0.0010952 1.82988968 -0.0010952 3.69674683 -0.00221252 C7.03373106 0.00067034 10.36916078 0.02570894 13.70586991 0.06065726 C17.19584953 0.09195507 20.68585079 0.09485416 24.1759491 0.1007843 C30.78105956 0.11631284 37.38575527 0.15732736 43.99068326 0.20753175 C51.51175823 0.26345647 59.03285322 0.29091949 66.55408442 0.31600893 C82.0222241 0.36824456 97.48992406 0.45717637 112.95776367 0.56762695 C112.95776367 4.19762695 112.95776367 7.82762695 112.95776367 11.56762695 C111.772229 11.57173584 110.58669434 11.57584473 109.36523438 11.58007812 C104.95724295 11.60188684 100.55014196 11.65619436 96.14257812 11.72021484 C94.2367406 11.74337972 92.33077534 11.75778702 90.42480469 11.76318359 C87.68107644 11.77248437 84.93935304 11.81349766 82.19604492 11.8605957 C81.34690018 11.85666306 80.49775543 11.85273041 79.62287903 11.84867859 C75.22661687 11.95656283 73.48608031 12.14369874 69.94287109 14.98681641 C67.9732318 17.37765882 67.9732318 17.37765882 66.95776367 19.56762695 C56.74391872 19.68351003 46.53023032 19.77233683 36.3158617 19.82668781 C31.5728056 19.85277462 26.83019947 19.88815571 22.08740234 19.94482422 C17.50973277 19.99917704 12.9324958 20.02905439 8.35452843 20.04201317 C6.60858029 20.05124722 4.86265567 20.06927957 3.11689186 20.09627724 C0.66985668 20.13261259 -1.77539442 20.13757066 -4.22265625 20.13525391 C-4.94338821 20.15323029 -5.66412018 20.17120667 -6.4066925 20.18972778 C-10.31726673 20.14970549 -11.91195729 19.67340275 -14.98945618 17.17472839 C-17.10628507 14.48628284 -17.72630744 13.42286598 -17.66723633 10.06762695 C-17.68012695 9.33543945 -17.69301758 8.60325195 -17.70629883 7.84887695 C-15.13494973 -0.98446349 -7.72107655 -0.12060223 0 0 Z " fill="#00429B" transform="translate(183.042236328125,138.432373046875)"/>
<path d="M0 0 C0.8621814 -0.00571014 1.72436279 -0.01142029 2.6126709 -0.01730347 C4.03479134 -0.01898026 4.03479134 -0.01898026 5.48564148 -0.02069092 C6.98095901 -0.02813828 6.98095901 -0.02813828 8.50648499 -0.03573608 C11.81554344 -0.05038166 15.12455394 -0.05716388 18.43363953 -0.06268311 C20.7280884 -0.06843281 23.02253725 -0.07419057 25.31698608 -0.07995605 C30.13313522 -0.09047302 34.94926763 -0.09631106 39.76542664 -0.09979248 C45.9394572 -0.10527708 52.1132672 -0.12930162 58.28722858 -0.15776443 C63.02869311 -0.17638055 67.77010442 -0.18159588 72.5116024 -0.18312836 C74.78780002 -0.18615799 77.06399663 -0.19419691 79.34015846 -0.20731354 C82.52424045 -0.22435143 85.70778251 -0.22249905 88.89189148 -0.21600342 C89.83389908 -0.2252182 90.77590668 -0.23443298 91.74645996 -0.243927 C96.59712201 -0.21289919 100.00612167 -0.1061476 103.88285828 3.14044189 C106.88285828 7.14044189 106.88285828 7.14044189 106.88285828 18.14044189 C67.94285828 18.14044189 29.00285828 18.14044189 -11.11714172 18.14044189 C-11.11714172 7.14044189 -11.11714172 7.14044189 -8.74214172 3.51544189 C-5.53078557 0.60992918 -4.18525531 0.01657268 0 0 Z " fill="#FA6934" transform="translate(307.1171417236328,131.85955810546875)"/>
<path d="M0 0 C23.1 0 46.2 0 70 0 C70.99 2.64 71.98 5.28 73 8 C76.11785113 10.35355339 76.11785113 10.35355339 81 11 C81 15.95 81 20.9 81 26 C54.27 26 27.54 26 0 26 C0 17.42 0 8.84 0 0 Z " fill="#0065EC" transform="translate(180,159)"/>
<path d="M0 0 C0.84732193 0.00359528 1.69464386 0.00719055 2.56764221 0.01089478 C3.89922363 0.01067574 3.89922363 0.01067574 5.25770569 0.01045227 C8.20666404 0.01115174 11.15556006 0.01894568 14.10450745 0.02676392 C16.14332037 0.02862798 18.18213374 0.03005194 20.22094727 0.03105164 C25.59844693 0.03487776 30.97591978 0.04470884 36.35340881 0.05575562 C41.83619321 0.06596771 47.31898192 0.07054882 52.80177307 0.07559204 C63.56806282 0.08633103 74.33432559 0.10392859 85.1006012 0.12442017 C85.1006012 6.72442017 85.1006012 13.32442017 85.1006012 20.12442017 C73.32204796 20.23737139 61.54385428 20.32910789 49.76488209 20.38348103 C44.29544775 20.40957714 38.82640307 20.44497605 33.35719299 20.50161743 C28.07927304 20.5559358 22.80172792 20.58584059 17.52355003 20.59880638 C15.50966681 20.60804651 13.49580415 20.62609047 11.48208046 20.65307045 C8.66151696 20.68935829 5.84250307 20.69436561 3.02174377 20.69204712 C1.77233253 20.71901169 1.77233253 20.71901169 0.49768066 20.746521 C-3.82664843 20.70804832 -5.40283868 20.52405892 -8.89447021 17.71394348 C-12.03181873 13.66181056 -12.42417375 11.28470719 -11.8993988 6.12442017 C-9.4618988 3.24942017 -9.4618988 3.24942017 -6.8993988 1.12442017 C-5.0546798 -0.72029884 -2.45423468 0.00439827 0 0 Z " fill="#A34F3E" transform="translate(65.89939880371094,181.87557983398438)"/>
<path d="M0 0 C0.82862045 0.00359528 1.65724091 0.00719055 2.51097107 0.01089478 C3.81329178 0.01067574 3.81329178 0.01067574 5.141922 0.01045227 C8.02594967 0.01115171 10.9099136 0.01894554 13.79393005 0.02676392 C15.78790247 0.02862799 17.78187535 0.03005194 19.77584839 0.03105164 C25.03498082 0.03487769 30.29408583 0.04470871 35.5532074 0.05575562 C40.91534555 0.06596786 46.27748811 0.07054885 51.63963318 0.07559204 C62.16894407 0.08633091 72.69822737 0.10392841 83.2275238 0.12442017 C83.2275238 6.72442017 83.2275238 13.32442017 83.2275238 20.12442017 C71.70973133 20.21478578 60.19217428 20.28817349 48.67410755 20.33166885 C43.32581221 20.35254435 37.97777195 20.38086161 32.62962341 20.42617798 C27.46842631 20.46963662 22.30747458 20.49355756 17.14610863 20.50392914 C15.17690353 20.51132044 13.20771187 20.52575391 11.23861122 20.54734039 C8.48046972 20.57637452 5.72334234 20.58037616 2.96507263 20.57852173 C2.15083328 20.59290283 1.33659393 20.60728394 0.49768066 20.62210083 C-3.46118613 20.59329641 -5.33119861 20.40593258 -8.756073 18.22103882 C-11.8498328 15.00420475 -12.16015569 12.63649405 -12.13575745 8.16348267 C-11.53213017 4.77538116 -9.35688139 3.20455118 -6.7724762 1.12442017 C-4.95008957 -0.69796646 -2.42491537 0.0044432 0 0 Z " fill="#00429C" transform="translate(177.77247619628906,230.87557983398438)"/>
<path d="M0 0 C0.86835983 -0.00014603 1.73671967 -0.00029205 2.63139343 -0.0004425 C5.50998406 0.00025579 8.38851048 0.00804429 11.26708984 0.01586914 C13.25963302 0.01773362 15.25217666 0.01915738 17.24472046 0.02015686 C22.49561829 0.0239797 27.74648856 0.03380802 32.99737549 0.04486084 C38.35290148 0.05507996 43.70843192 0.05965556 49.06396484 0.06469727 C59.57699974 0.07543048 70.09000695 0.09302541 80.60302734 0.11352539 C80.60302734 6.71352539 80.60302734 13.31352539 80.60302734 20.11352539 C69.23288949 20.20393569 57.86299083 20.27730452 46.49257469 20.32077408 C41.21268725 20.3416385 35.93305874 20.36993551 30.65332031 20.4152832 C25.55695683 20.45878139 20.46084222 20.48267112 15.3643074 20.49303436 C13.42104805 20.50041857 11.47780214 20.51483827 9.5346489 20.53644562 C6.81023599 20.56553236 4.08684817 20.56947919 1.36230469 20.56762695 C0.56101135 20.58200806 -0.24028198 20.59638916 -1.06585693 20.61120605 C-6.28687355 20.57286115 -9.25198344 19.5689153 -13.39697266 16.11352539 C-14.99783893 12.91179285 -14.89614355 9.5877548 -14.39697266 6.11352539 C-10.37969965 -0.18020232 -7.00158764 -0.03051136 0 0 Z " fill="#00429C" transform="translate(180.39697265625,184.886474609375)"/>
<path d="M0 0 C0.74092896 0.01012115 1.48185791 0.02024231 2.24523926 0.03067017 C3.03773071 0.02190857 3.83022217 0.01314697 4.64672852 0.00411987 C7.2582525 -0.01783128 9.868074 -0.00333774 12.47961426 0.01358032 C14.29895349 0.01021093 16.11829053 0.00535728 17.93762207 -0.00091553 C21.74741076 -0.00828101 25.55661262 0.00240799 29.36633301 0.02578735 C34.24589751 0.05427522 39.124087 0.03786947 44.00360107 0.00792503 C47.7595045 -0.01015686 51.51508279 -0.00438588 55.27099609 0.008564 C57.06990726 0.01189556 58.8688481 0.0078197 60.66772461 -0.00383377 C63.18393956 -0.01655765 65.69793905 0.00285331 68.21398926 0.03067017 C69.32538269 0.01548843 69.32538269 0.01548843 70.45922852 0 C76.3740403 0.12092903 76.55357616 1.00160473 81.22961426 5.67764282 C81.22961426 10.62764282 81.22961426 15.57764282 81.22961426 20.67764282 C50.86961426 20.67764282 20.50961426 20.67764282 -10.77038574 20.67764282 C-10.77038574 0.22020182 -10.77038574 0.22020182 0 0 Z " fill="#0055CA" transform="translate(220.7703857421875,-0.677642822265625)"/>
<path d="M0 0 C17.82 0 35.64 0 54 0 C51.00003102 2.99996898 48.35345669 5.5819613 45.125 8.1875 C37.29148127 15.00118328 30.86980007 24.54045534 29.46875 34.9453125 C28.23325174 43.69068254 28.23325174 43.69068254 26 47 C21.49844351 49.98288456 16.0819666 50.76075642 10.83984375 51.62402344 C8.67297817 52.06682771 6.96507111 53.00884571 5 54 C3.35 54 1.7 54 0 54 C0 36.18 0 18.36 0 0 Z " fill="#0066EC" transform="translate(180,298)"/>
<path d="M0 0 C0.87855148 -0.00073013 1.75710297 -0.00146027 2.66227722 -0.00221252 C5.5576312 0.00126272 8.45136366 0.04012055 11.34643555 0.0793457 C13.35710267 0.08867406 15.36778118 0.09579006 17.37846375 0.1007843 C22.66414911 0.11985224 27.94914478 0.16895172 33.23455811 0.2243042 C38.63047964 0.27550082 44.02651289 0.29829926 49.42260742 0.32348633 C60.00559233 0.37707029 70.5880659 0.462381 81.1706543 0.56762695 C81.1706543 4.52762695 81.1706543 8.48762695 81.1706543 12.56762695 C79.7475293 12.81512695 78.3244043 13.06262695 76.8581543 13.31762695 C70.28337001 14.62511246 63.98683844 16.80237894 57.9026947 19.61671448 C54.74151491 20.71699297 52.25938986 20.80408809 48.91503906 20.78222656 C47.67347549 20.77819321 46.43191193 20.77415985 45.15272522 20.77000427 C43.80582553 20.75427988 42.45893694 20.73757809 41.11206055 20.7199707 C39.72110681 20.70647625 38.33015114 20.69317877 36.93919373 20.68006897 C34.02816073 20.64964979 31.11739453 20.61030705 28.20654297 20.56591797 C24.48659983 20.51083029 20.76721328 20.48794263 17.04692173 20.47305965 C14.17520232 20.45626903 11.30409241 20.41721294 8.43269157 20.37207222 C7.06172711 20.35412831 5.69063244 20.3441926 4.31955147 20.34260368 C-7.72046371 20.31402517 -7.72046371 20.31402517 -11.66870117 17.16162109 C-13.88338248 14.5027523 -14.63074437 13.47259769 -14.5168457 10.06762695 C-14.52071289 9.33543945 -14.52458008 8.60325195 -14.52856445 7.84887695 C-12.2359623 0.36910232 -6.709242 -0.14644164 0 0 Z " fill="#00429B" transform="translate(179.829345703125,277.432373046875)"/>
<path d="M0 0 C2.45176155 1.90692565 3.1486461 2.88936551 4.25 5.75 C4.49050903 8.54681396 4.49050903 8.54681396 4.47705078 11.80371094 C4.47689972 13.02467468 4.47674866 14.24563843 4.47659302 15.50360107 C4.46627045 16.81725647 4.45594788 18.13091187 4.4453125 19.484375 C4.44158042 20.84629102 4.43873437 22.20820973 4.43673706 23.57012939 C4.42911594 27.14747586 4.40948069 30.72465885 4.3873291 34.30194092 C4.36683778 37.9551777 4.35772833 41.60844101 4.34765625 45.26171875 C4.32623322 52.42455353 4.29211582 59.58725383 4.25 66.75 C0.59216962 64.96042963 -2.85560948 62.8964607 -6.3125 60.75 C-6.88935547 60.39421875 -7.46621094 60.0384375 -8.06054688 59.671875 C-10.65235298 58.06955888 -13.21434984 56.44043344 -15.75 54.75 C-16.13095093 52.6829071 -16.13095093 52.6829071 -16.13818359 50.10424805 C-16.14764008 49.13952072 -16.15709656 48.1747934 -16.1668396 47.18083191 C-16.16076691 46.13502457 -16.15469421 45.08921722 -16.1484375 44.01171875 C-16.15130768 42.93880081 -16.15417786 41.86588287 -16.15713501 40.76045227 C-16.15917963 38.4865364 -16.15362212 36.21260309 -16.14111328 33.9387207 C-16.12511275 30.46199967 -16.14092489 26.98644955 -16.16015625 23.50976562 C-16.15817297 21.30208077 -16.15432753 19.09439664 -16.1484375 16.88671875 C-16.15451019 15.8469841 -16.16058289 14.80724945 -16.1668396 13.73600769 C-16.07915471 4.70292348 -16.07915471 4.70292348 -12.75 0.75 C-8.70831417 -2.17673801 -4.4400365 -2.01819841 0 0 Z " fill="#A44F3D" transform="translate(130.75,220.25)"/>
<path d="M0 0 C0.77085938 0.04382813 1.54171875 0.08765625 2.3359375 0.1328125 C5.78893477 1.25238499 6.73057893 2.78163116 8.625 5.875 C9.17012909 9.17956174 9.0910365 12.4281211 9.015625 15.76953125 C9.00996521 16.71688644 9.00430542 17.66424164 8.99847412 18.64030457 C8.97614084 21.65655735 8.9259498 24.67160822 8.875 27.6875 C8.85493107 29.73631093 8.83668099 31.78514054 8.8203125 33.83398438 C8.77628594 38.84811709 8.7072791 43.86135499 8.625 48.875 C1.88266581 49.00410853 -4.67886804 48.672837 -11.375 47.875 C-11.49891543 42.14591299 -11.58948818 36.41761176 -11.6496582 30.6875 C-11.67474946 28.73977057 -11.70883061 26.7921348 -11.75219727 24.84472656 C-11.81308749 22.0394781 -11.84126331 19.23547792 -11.86328125 16.4296875 C-11.88908768 15.56383026 -11.9148941 14.69797302 -11.94148254 13.80587769 C-11.94345583 9.51921555 -11.72066129 6.74168161 -8.96948242 3.34033203 C-5.67815064 0.21283901 -4.40060646 -0.33625897 0 0 Z " fill="#A44F3E" transform="translate(87.375,219.125)"/>
<path d="M0 0 C0.41902588 0.37439209 0.83805176 0.74878418 1.26977539 1.13452148 C4.31460642 3.80627545 7.28827808 6.23075621 10.74609375 8.34765625 C15.85046111 11.88310795 20.1812481 15.62896182 21.37811279 22.01861572 C22.68482479 33.58136975 21.81005436 45.42601455 21 57 C15.10849211 52.09041009 9.75978783 46.80943442 4.4296875 41.30273438 C1.16431363 37.98048412 -1.80233192 35.1470831 -6 33 C-5.70792311 25.02630091 -4.34102424 17.93243335 -1.9375 10.32421875 C-0.96845771 6.88815629 -0.43076415 3.54034283 0 0 Z " fill="#FFC042" transform="translate(237,363)"/>
<path d="M0 0 C0.93972656 0.8146875 1.87945312 1.629375 2.84765625 2.46875 C5.00943647 4.33804446 7.18692913 6.14379737 9.45263672 7.88671875 C25.68851706 20.46899364 25.68851706 20.46899364 27.91650391 29.86523438 C28.95139034 38.53555788 28.1228152 47.38023412 27 56 C13.77048125 49.57320382 6.68578005 36.26018717 1.61328125 23.0546875 C0.03833085 17.77810209 -0.13137035 12.59224602 -0.0625 7.125 C-0.05798828 6.43664062 -0.05347656 5.74828125 -0.04882812 5.0390625 C-0.03716336 3.35933665 -0.01923271 1.67965625 0 0 Z " fill="#FFC042" transform="translate(231,416)"/>
<path d="M0 0 C2.92937654 1.81310142 5.43647949 3.87295899 7 7 C7.27263935 11.59893012 7.23167643 16.20641322 7.25 20.8125 C7.270625 22.09705078 7.29125 23.38160156 7.3125 24.70507812 C7.31765625 25.94322266 7.3228125 27.18136719 7.328125 28.45703125 C7.34214355 30.1582312 7.34214355 30.1582312 7.35644531 31.89379883 C6.95923529 35.35523933 6.04511824 37.20974902 4 40 C0.78446554 42.32849047 -2.11021377 42.54457007 -6 42 C-8.92483867 40.17452064 -11.43429205 38.13141589 -13 35 C-13.32669305 30.42298907 -13.32464136 25.83721418 -13.375 21.25 C-13.41238281 19.97382813 -13.44976562 18.69765625 -13.48828125 17.3828125 C-13.58728654 6.84424975 -13.58728654 6.84424975 -10.6015625 3.171875 C-6.87167298 0.0580333 -4.86840871 -0.56173947 0 0 Z " fill="#B6C4CF" transform="translate(339,191)"/>
<path d="M0 0 C2.58297781 2.18991597 4.48415844 3.96831688 6 7 C6.27118225 11.26536807 6.23165107 15.53949194 6.25 19.8125 C6.270625 21.00166016 6.29125 22.19082031 6.3125 23.41601562 C6.31765625 24.56392578 6.3228125 25.71183594 6.328125 26.89453125 C6.34214355 28.47004761 6.34214355 28.47004761 6.35644531 30.07739258 C5.84655857 34.25811464 4.130543 36.869457 1.1875 39.8125 C-1.77565641 41.42107062 -3.66759369 41.40804975 -7 41 C-10.49406769 39.33237678 -11.82670681 38.25993978 -14 35 C-14.25878906 32.06079102 -14.25878906 32.06079102 -14.265625 28.50390625 C-14.26820313 27.22322266 -14.27078125 25.94253906 -14.2734375 24.62304688 C-14.26924805 23.956521 -14.26505859 23.28999512 -14.26074219 22.60327148 C-14.25005579 20.57309955 -14.26063679 18.54381602 -14.2734375 16.51367188 C-14.27085937 15.23169922 -14.26828125 13.94972656 -14.265625 12.62890625 C-14.26224121 10.8665564 -14.26224121 10.8665564 -14.25878906 9.06860352 C-14.00815112 6.09665224 -13.62407167 4.46336416 -12 2 C-7.9055724 -1.39252572 -5.04980395 -1.44280113 0 0 Z " fill="#B6C4CF" transform="translate(416,192)"/>
<path d="M0 0 C2.92937654 1.81310142 5.43647949 3.87295899 7 7 C7.32669305 11.57701093 7.32464136 16.16278582 7.375 20.75 C7.41238281 22.02617187 7.44976562 23.30234375 7.48828125 24.6171875 C7.58730934 35.15817794 7.58730934 35.15817794 4.72265625 38.81640625 C1.54277872 41.3666954 -0.04841712 42.07301013 -4 42.3125 C-7.7000711 41.73436389 -9.45940763 39.6645237 -12 37 C-14.27440469 32.45119063 -13.32017974 26.24362732 -13.375 21.25 C-13.41238281 19.97382813 -13.44976562 18.69765625 -13.48828125 17.3828125 C-13.58728654 6.84424975 -13.58728654 6.84424975 -10.6015625 3.171875 C-6.87167298 0.0580333 -4.86840871 -0.56173947 0 0 Z " fill="#B6C4CF" transform="translate(377,191)"/>
<path d="M0 0 C2.8100346 1.79363911 4.50940468 3.01880935 6 6 C6.27263935 10.59893012 6.23167643 15.20641322 6.25 19.8125 C6.270625 21.09705078 6.29125 22.38160156 6.3125 23.70507812 C6.31765625 24.94322266 6.3228125 26.18136719 6.328125 27.45703125 C6.34214355 29.1582312 6.34214355 29.1582312 6.35644531 30.89379883 C5.95601607 34.38329285 5.09943935 36.20904936 3 39 C-0.66908557 41.44605705 -3.73618769 41.83946402 -8 41 C-10.69105198 38.82425584 -12.45532928 37.08934144 -14 34 C-14.2715541 29.75552709 -14.23167168 25.50216938 -14.25 21.25 C-14.270625 20.06921875 -14.29125 18.8884375 -14.3125 17.671875 C-14.36228675 6.61921638 -14.36228675 6.61921638 -11 2 C-7.31502204 -0.45665197 -4.28028214 -0.70086491 0 0 Z " fill="#B6C4CF" transform="translate(340,260)"/>
<path d="M0 0 C0.75925781 -0.04898438 1.51851563 -0.09796875 2.30078125 -0.1484375 C5.92951072 0.6473886 7.35029699 2.55296058 9.6875 5.375 C10.30273438 8.52539062 10.30273438 8.52539062 10.28125 12.03125 C10.27867187 13.30097656 10.27609375 14.57070312 10.2734375 15.87890625 C10.23089844 17.85697266 10.23089844 17.85697266 10.1875 19.875 C10.19136719 21.85306641 10.19136719 21.85306641 10.1953125 23.87109375 C10.08508008 34.72898729 10.08508008 34.72898729 6.6875 39.375 C3.47196554 41.70349047 0.57728623 41.91957007 -3.3125 41.375 C-6.74015324 39.30727415 -9.01959412 37.25371765 -10.3125 33.375 C-10.60023324 28.92128634 -10.59021344 24.46195644 -10.625 20 C-10.65400391 18.76765625 -10.68300781 17.5353125 -10.71289062 16.265625 C-10.72126953 15.07710937 -10.72964844 13.88859375 -10.73828125 12.6640625 C-10.75286377 11.57818848 -10.76744629 10.49231445 -10.7824707 9.37353516 C-10.2030152 5.67645856 -8.8874577 4.03713777 -6.3125 1.375 C-4.04001762 0.23875881 -2.52947236 0.11053157 0 0 Z " fill="#9FACBA" transform="translate(298.3125,191.625)"/>
<path d="M0 0 C2.8100346 1.79363911 4.50940468 3.01880935 6 6 C6.25737715 10.08572909 6.27099847 14.17316487 6.29516602 18.26635742 C6.31235006 20.29480029 6.35623375 22.32159994 6.40039062 24.34960938 C6.40876953 25.63287109 6.41714844 26.91613281 6.42578125 28.23828125 C6.44036377 29.41430908 6.45494629 30.59033691 6.4699707 31.80200195 C5.90356394 35.6562161 4.74457589 37.28209155 2 40 C-1 41 -1 41 -3.8828125 39.6015625 C-4.95273437 38.94929688 -6.02265625 38.29703125 -7.125 37.625 C-8.20007813 36.97789062 -9.27515625 36.33078125 -10.3828125 35.6640625 C-13 34 -13 34 -14 33 C-14.28241575 28.75691735 -14.23187056 24.50135399 -14.25 20.25 C-14.270625 19.05632812 -14.29125 17.86265625 -14.3125 16.6328125 C-14.31765625 15.48039062 -14.3228125 14.32796875 -14.328125 13.140625 C-14.3374707 12.08391602 -14.34681641 11.02720703 -14.35644531 9.93847656 C-13.94558565 6.55141707 -13.02600364 4.7238889 -11 2 C-7.31502204 -0.45665197 -4.28028214 -0.70086491 0 0 Z " fill="#9FACBA" transform="translate(302,260)"/>
<path d="M0 0 C2.109375 1.390625 2.109375 1.390625 3.75 3.25 C4.32234375 3.89195313 4.8946875 4.53390625 5.484375 5.1953125 C6.23460937 6.08863281 6.23460937 6.08863281 7 7 C7.66 7.70125 8.32 8.4025 9 9.125 C10 11 10 11 9.89453125 13.25 C8.68805615 16.95898895 6.4117521 19.2106603 3.6875 21.875 C3.20087891 22.38546875 2.71425781 22.8959375 2.21289062 23.421875 C-1.34226132 26.96267236 -1.34226132 26.96267236 -3.99609375 27.11328125 C-6.90963091 25.49464949 -9.25422736 23.52106071 -11.75 21.3125 C-12.73484375 20.46300781 -13.7196875 19.61351563 -14.734375 18.73828125 C-17 16 -17 16 -17.61328125 13.00390625 C-16.81002281 9.06947481 -15.27368955 7.4400555 -12.4375 4.625 C-11.59058594 3.75101563 -10.74367188 2.87703125 -9.87109375 1.9765625 C-6.2591848 -0.51000339 -4.30314627 -0.62393145 0 0 Z " fill="#FD5427" transform="translate(106,60)"/>
<path d="M0 0 C3.70048363 0.89950217 5.84142161 3.15377843 8.4140625 5.8046875 C8.92453125 6.28744141 9.435 6.77019531 9.9609375 7.26757812 C12.19203781 9.51375344 13.50690186 10.92251759 13.65625 14.1484375 C12.19343338 17.38095535 10.29797453 19.42448688 7.7890625 21.9296875 C6.92796875 22.81269531 6.066875 23.69570313 5.1796875 24.60546875 C2.5390625 26.6171875 2.5390625 26.6171875 0.078125 27.234375 C-3.62235863 26.33487283 -5.76329661 24.08059657 -8.3359375 21.4296875 C-8.84640625 20.94693359 -9.356875 20.46417969 -9.8828125 19.96679688 C-12.11391281 17.72062156 -13.42877686 16.31185741 -13.578125 13.0859375 C-12.11530838 9.85341965 -10.21984953 7.80988812 -7.7109375 5.3046875 C-6.84984375 4.42167969 -5.98875 3.53867187 -5.1015625 2.62890625 C-2.4609375 0.6171875 -2.4609375 0.6171875 0 0 Z " fill="#FF6A2F" transform="translate(60.4609375,308.3828125)"/>
<path d="M0 0 C2.421875 1.890625 2.421875 1.890625 4.75 4.25 C5.52859375 5.01828125 6.3071875 5.7865625 7.109375 6.578125 C9.23977036 9.30714385 10.16185938 10.52263403 10 14 C8.16498915 16.42065261 6.48566516 18.30887505 4.3125 20.375 C3.76916016 20.93316406 3.22582031 21.49132812 2.66601562 22.06640625 C1.05078125 23.6484375 1.05078125 23.6484375 -2 26 C-6.3591439 25.55076718 -8.83941811 22.71148339 -11.8125 19.75 C-12.32748047 19.27175781 -12.84246094 18.79351562 -13.37304688 18.30078125 C-15.64955165 16.05170424 -16.97208024 14.70443699 -17.1015625 11.4375 C-15.71905022 8.3783239 -13.98918708 6.5640888 -11.5625 4.25 C-10.75941406 3.47140625 -9.95632813 2.6928125 -9.12890625 1.890625 C-5.75430847 -1.10626551 -4.29793236 -1.33210769 0 0 Z " fill="#FFB209" transform="translate(389,329)"/>
<path d="M0 0 C3.57801797 0.83170776 5.24204512 2.62122851 7.81640625 5.20703125 C8.69941406 6.06554687 9.58242187 6.9240625 10.4921875 7.80859375 C12.50390625 10.58203125 12.50390625 10.58203125 13.08984375 13.58203125 C12.31247705 17.56214877 10.70575772 19.14782238 7.81640625 21.95703125 C6.51123047 23.26800781 6.51123047 23.26800781 5.1796875 24.60546875 C2.50390625 26.58203125 2.50390625 26.58203125 0.0390625 27.1953125 C-3.6606722 26.30030734 -5.79997754 24.04386925 -8.37109375 21.39453125 C-8.8815625 20.91177734 -9.39203125 20.42902344 -9.91796875 19.93164062 C-12.14906906 17.68546531 -13.46393311 16.27670116 -13.61328125 13.05078125 C-12.15046463 9.8182634 -10.25500578 7.77473187 -7.74609375 5.26953125 C-6.885 4.38652344 -6.02390625 3.50351562 -5.13671875 2.59375 C-2.49609375 0.58203125 -2.49609375 0.58203125 0 0 Z " fill="#FF9500" transform="translate(91.49609375,356.41796875)"/>
<path d="M0 0 C4.02640472 3.09157218 7.29786659 6.06326025 9.05078125 10.8984375 C8.99119101 14.53802575 7.95163623 15.93263672 5.421875 18.48632812 C4.65617187 19.2046582 4.65617187 19.2046582 3.875 19.9375 C3.38773438 20.44345703 2.90046875 20.94941406 2.3984375 21.47070312 C0.13396122 23.67796524 -1.31718848 24.96948916 -4.53515625 25.11328125 C-7.76715479 23.65350378 -9.80860475 21.75760473 -12.3125 19.25 C-13.19550781 18.38890625 -14.07851562 17.5278125 -14.98828125 16.640625 C-17 14 -17 14 -17.56640625 11.46875 C-16.78301945 8.05426409 -15.15880619 6.63193768 -12.625 4.25 C-11.40683594 3.08210938 -11.40683594 3.08210938 -10.1640625 1.890625 C-6.4840548 -1.32439978 -4.69847836 -1.47915059 0 0 Z " fill="#A1E52D" transform="translate(174,416)"/>
<path d="M0 0 C3.38184161 2.64665865 5.18736817 5.17877615 7 9 C6.3709375 9.47308594 5.741875 9.94617188 5.09375 10.43359375 C-0.27004683 14.57761148 -4.92431815 18.84809969 -9.30859375 24.01953125 C-10.80482635 25.77147104 -12.36186043 27.38308654 -14 29 C-14.1164862 25.27109745 -14.18734576 21.54266486 -14.25 17.8125 C-14.28351563 16.75740234 -14.31703125 15.70230469 -14.3515625 14.61523438 C-14.45071882 6.75709587 -14.45071882 6.75709587 -12.109375 2.82421875 C-8.40552594 -0.37892479 -4.77794448 -0.82536469 0 0 Z " fill="#B7C3CD" transform="translate(378,260)"/>
</svg>
