<?xml version="1.0" encoding="UTF-8"?>
<svg version="1.1" xmlns="http://www.w3.org/2000/svg" width="256" height="256">
<path d="M0 0 C0 0.66 0 1.32 0 2 C6.87845127 5.72582777 12.21985332 7.88229355 20 6 C23.30859472 4.04543223 23.30859472 4.04543223 26 2 C26.66 2 27.32 2 28 2 C28 1.34 28 0.68 28 0 C30.4375 -0.875 30.4375 -0.875 34 -1 C37.3327875 0.58186653 40.12515829 2.70415443 43 5 C43.93392578 5.72703125 43.93392578 5.72703125 44.88671875 6.46875 C51.10593066 11.94724678 55.71666326 20.43309333 57.578125 28.5078125 C57.75482146 31.82718164 57.16229549 33.7650404 55.28125 36.48828125 C47.63284589 44.90938371 37.0373864 48.76144522 26 50 C7.58922978 50.80495919 -10.27526396 51.16671899 -25.1875 38.75 C-28.34248073 35.66512995 -28.84388929 35.0147196 -29.5 30.75 C-29.35533164 21.92523034 -23.44963985 13.04915456 -17.5 6.875 C-7.52498365 -2.20243424 -7.52498365 -2.20243424 0 0 Z " fill="#2A8CFF" transform="translate(114,180)"/>
<path d="M0 0 C2.58450538 2.66282373 3 4.18775596 3 7.875 C1.90175317 11.30702136 0.35389211 13.45014747 -1.7890625 16.29296875 C-5.5187569 21.55063473 -5.76825272 27.78503249 -5 34 C-3.70865352 38.30721262 -1.44380953 41.08557224 2.375 43.4375 C9.46462153 46.54418809 18.09990418 45.55862606 25.5625 44.3125 C29 44 29 44 31.8125 45 C36.22196569 49.03151149 37.00227526 53.70342685 37.8125 59.375 C38.6391074 64.55554811 40.49710111 67.88985108 43.66015625 72.02734375 C45.11807848 74.17384732 45.89566609 75.39662043 46 78 C39.63115343 88.00579317 28.70639137 94.97238114 17.49609375 98.33984375 C3.6496556 100.95442257 -10.63813201 99.69460482 -22.8125 92.25 C-23.864375 91.5075 -24.91625 90.765 -26 90 C-25.505 89.01 -25.505 89.01 -25 88 C-20.39643009 87.01352073 -17.00042865 86.84165791 -12.4375 88 C-6.75914724 89.4244665 -2.77543242 89.01922972 2.375 86.0625 C5.01589023 83.98751482 5.84125271 83.30120732 6.23828125 80.046875 C6.41922804 74.44704809 5.86537241 71.33675929 2 67 C-0.91292459 64.54031018 -3.93104045 62.25970044 -7 60 C-8.58587507 58.41412493 -8.46353731 56.49433217 -8.8125 54.3125 C-9.7344572 49.6961286 -10.72204561 46.53010472 -14 43 C-16.90833975 41.38771183 -19.89223934 40.1699099 -23 39 C-23.66 38.67 -24.32 38.34 -25 38 C-24.93039063 36.2984375 -24.93039063 36.2984375 -24.859375 34.5625 C-24.62225344 26.14095056 -24.6406195 20.41094685 -29 13 C-27.59276414 8.27242331 -23.77178563 6.695835 -19.72265625 4.39453125 C-13.31793418 1.11406385 -7.23290887 -0.9976426 0 0 Z " fill="#2B8AFF" transform="translate(124,27)"/>
<path d="M0 0 C0.763125 0.61875 1.52625 1.2375 2.3125 1.875 C6.39890787 5.1061132 10.18861893 7.05728519 15.4921875 6.94921875 C20.22270592 6.23748422 23.21749596 5.14245903 26.6875 1.8125 C29.27913556 -0.65197587 29.65718251 -0.97506782 33.4375 -1.25 C38.0257822 0.35992358 41.32062156 2.87491753 45 6 C43.87073305 9.28514023 42.38365351 12.04256348 40.5 14.9375 C36.43457419 21.3774223 34.97423541 27.39945517 36 35 C37.64716449 38.12393266 39.27311593 40.27311593 41.75 42.75 C43 44 43 44 43 46 C41.69211261 46.49161725 40.37828093 46.96741758 39.0625 47.4375 C38.33160156 47.70433594 37.60070312 47.97117188 36.84765625 48.24609375 C20.84960108 52.48151851 -2.0484691 52.523342 -16.671875 44.48046875 C-21.76395951 41.24238145 -25.85843574 38.12004791 -28.75 32.75 C-29.34260166 23.86097514 -24.52537115 16.3833817 -19.296875 9.5234375 C-14.36772752 4.10808159 -7.57698263 -2.29071568 0 0 Z " fill="#0DAFFF" transform="translate(44,180)"/>
<path d="M0 0 C1.11137016 0.92567287 2.19157013 1.88923122 3.25 2.875 C7.144613 6.42398717 10.71160379 7.87598401 16 8 C20.86195065 7.21244436 24.58051159 5.60337204 28.1875 2.25 C31 0 31 0 33.87109375 0.1796875 C44.51939382 2.97137666 50.79342444 11.94655008 56.16015625 20.9453125 C58.39120045 25.4074009 59.03301293 30.14483924 58 35 C53.85703809 42.84651876 45.0853006 46.35221836 37.21484375 49.421875 C30.36943676 51.20868317 23.33945467 51.19358342 16.3125 51.1875 C15.34513916 51.18669434 14.37777832 51.18588867 13.38110352 51.18505859 C4.27661232 51.10741809 -4.53317162 50.64395146 -13 47 C-11.880462 44.48103951 -10.68018448 42.60265345 -8.9375 40.4375 C-5.4013243 35.98876283 -5.39474106 31.45573686 -6 26 C-7.81894939 19.50516442 -10.86907756 14.2784009 -15 9 C-12.73168692 3.5560486 -6.11590986 -1.72500022 0 0 Z " fill="#4768FF" transform="translate(182,179)"/>
<path d="M0 0 C15.56970877 1.45652114 26.9311233 7.42885642 37.03515625 19.4140625 C41.34350595 25.17682324 43.95678343 31.12336789 46 38 C46.19335938 38.598125 46.38671875 39.19625 46.5859375 39.8125 C48.52936556 50.0796671 47.68414187 61.63171626 43 71 C40 70 40 70 38.9375 68.390625 C36.44929996 62.7092349 34.99219857 57.10273552 33.80859375 51.015625 C32.60321261 46.5201939 31.15774848 43.7630615 27.25 41.1875 C22.87251818 39.58803549 19.17721792 39.54088321 14.62890625 40.5 C9.09506208 41.55249934 3.24714705 41.93631127 -2 39.75 C-5.54735576 36.64606371 -6.83454313 35.19956234 -7.5 30.375 C-7.27804402 24.12518687 -3.86306999 18.42199099 -0.125 13.5625 C1.79299811 9.19372652 0.67212171 4.62387343 0 0 Z " fill="#3380FF" transform="translate(131,26)"/>
<path d="M0 0 C4.58087433 3.78558365 7.66156386 8.4919408 8.5 14.39453125 C9.28459796 23.22852304 6.48007416 31.40628635 1.296875 38.48828125 C-2.15513463 42.57706935 -5.98715452 46.12659185 -11.3125 47.39453125 C-17.99486077 47.18239281 -22.14566395 45.75137746 -26.875 40.73828125 C-32.9108052 33.3745989 -36.18711701 24.65959084 -35.75 15.09765625 C-34.80124627 9.23571354 -32.62256704 4.44978077 -28.15234375 0.47265625 C-19.16660957 -5.82785854 -9.17139869 -6.41628094 0 0 Z " fill="#10ACFF" transform="translate(72.3125,133.60546875)"/>
<path d="M0 0 C4.32889575 3.35580364 7.1479436 8.30711205 8.859375 13.44140625 C9.8729147 23.277726 7.68221498 31.78197575 1.984375 39.87890625 C-1.64873285 44.31129783 -5.34577625 47.31858741 -11.078125 48.37890625 C-15.31294121 48.67622731 -18.65808771 47.89208064 -22.140625 45.44140625 C-29.93151345 38.47215575 -34.41840264 30.0755545 -35.17578125 19.6015625 C-35.05428552 12.13632472 -32.23585648 6.53663773 -26.953125 1.25390625 C-18.23791616 -4.36256167 -9.19616143 -4.9843195 0 0 Z " fill="#446BFF" transform="translate(210.140625,132.55859375)"/>
<path d="M0 0 C4.82517967 3.83243936 8.38207505 8.16826149 9.6328125 14.296875 C10.42852668 23.84544511 7.60685939 32.78664463 1.6328125 40.296875 C-2.04234921 44.44651054 -5.38436459 47.54388252 -10.9921875 48.421875 C-16.49371219 48.61093083 -19.7993305 46.63528951 -23.9296875 43.109375 C-30.53755405 35.48491359 -35.09270223 26.79621369 -34.64453125 16.48828125 C-33.81834676 9.96026013 -31.30015676 5.24020672 -26.44921875 0.77734375 C-18.50518045 -4.87141894 -8.19974131 -5.26308977 0 0 Z " fill="#2A8CFF" transform="translate(140.3671875,132.703125)"/>
<path d="M0 0 C1.9375 0.75 1.9375 0.75 4 2 C5.63915864 6.73310213 4.91057576 11.87280218 4.609375 16.80078125 C4.50008432 20.70109227 4.56147309 22.52505563 7.2578125 25.4453125 C9.59888457 26.77258698 11.54782225 27.67764602 14.125 28.375 C17.22367971 29.47002215 17.87316509 29.82243113 19.875 32.625 C20.77734104 35.33202312 21.35601761 37.7776034 21.875 40.5625 C23.12919829 46.64995023 26.87495953 49.23392924 31.75 52.6875 C35 55 35 55 36 57 C36.45667837 62.36597081 36.45667837 62.36597081 34.79296875 64.67578125 C32.42705645 66.42315439 30.97670407 66.33764524 28.0625 66.25 C27.20785156 66.23453125 26.35320312 66.2190625 25.47265625 66.203125 C23.19333177 66.01588192 21.2026516 65.58493652 19 65 C13.05475529 64.5337063 8.4713943 65.91565932 3 68 C-8.05065312 55.10226365 -12.20826187 41.87790804 -11 25 C-9.47313921 15.86269245 -5.7141328 7.29216367 0 0 Z " fill="#1E9AFF" transform="translate(89,44)"/>
</svg>
